<svg width="50" height="50" viewBox="0 0 50 50" fill="none" xmlns="http://www.w3.org/2000/svg">
<rect x="1" y="1" width="48" height="48" rx="24" fill="white"/>
<rect x="1" y="1" width="48" height="48" rx="24" stroke="#FF1B1B" stroke-width="2"/>
<path d="M20.0085 16.0455V33.5H16.3182V19.5483H16.2159L12.2188 22.054V18.7812L16.5398 16.0455H20.0085ZM30.6683 33.7386C29.3558 33.7386 28.1882 33.5256 27.1655 33.0994C26.1484 32.6676 25.3501 32.0795 24.7706 31.3352C24.1911 30.5909 23.9013 29.7472 23.9013 28.804C23.9013 28.0767 24.0661 27.4091 24.3956 26.8011C24.7308 26.1875 25.1854 25.679 25.7592 25.2756C26.3331 24.8665 26.9751 24.6051 27.6854 24.4915V24.3722C26.7536 24.1847 25.9979 23.733 25.4183 23.017C24.8388 22.2955 24.549 21.4574 24.549 20.5028C24.549 19.5994 24.8132 18.7955 25.3416 18.0909C25.87 17.3807 26.5945 16.8239 27.5149 16.4205C28.4411 16.0114 29.4922 15.8068 30.6683 15.8068C31.8445 15.8068 32.8928 16.0114 33.8132 16.4205C34.7393 16.8295 35.4666 17.3892 35.995 18.0994C36.5234 18.804 36.7905 19.6051 36.7962 20.5028C36.7905 21.4631 36.495 22.3011 35.9098 23.017C35.3246 23.733 34.5746 24.1847 33.6598 24.3722V24.4915C34.3587 24.6051 34.9922 24.8665 35.5604 25.2756C36.1342 25.679 36.5888 26.1875 36.924 26.8011C37.2649 27.4091 37.4382 28.0767 37.4439 28.804C37.4382 29.7472 37.1456 30.5909 36.5661 31.3352C35.9865 32.0795 35.1854 32.6676 34.1626 33.0994C33.1456 33.5256 31.9808 33.7386 30.6683 33.7386ZM30.6683 31.0284C31.2536 31.0284 31.7649 30.9233 32.2024 30.7131C32.6399 30.4972 32.9808 30.2017 33.2251 29.8267C33.4751 29.446 33.6001 29.0085 33.6001 28.5142C33.6001 28.0085 33.4723 27.5625 33.2166 27.1761C32.9609 26.7841 32.6143 26.4773 32.1768 26.2557C31.7393 26.0284 31.2365 25.9148 30.6683 25.9148C30.1058 25.9148 29.603 26.0284 29.1598 26.2557C28.7166 26.4773 28.3672 26.7841 28.1115 27.1761C27.8615 27.5625 27.7365 28.0085 27.7365 28.5142C27.7365 29.0085 27.8587 29.446 28.103 29.8267C28.3473 30.2017 28.6911 30.4972 29.1342 30.7131C29.5774 30.9233 30.0888 31.0284 30.6683 31.0284ZM30.6683 23.2301C31.157 23.2301 31.5916 23.1307 31.9723 22.9318C32.353 22.733 32.6513 22.4574 32.8672 22.1051C33.0831 21.7528 33.1911 21.3466 33.1911 20.8864C33.1911 20.4318 33.0831 20.0341 32.8672 19.6932C32.6513 19.3466 32.3558 19.0767 31.9808 18.8835C31.6058 18.6847 31.1683 18.5852 30.6683 18.5852C30.174 18.5852 29.7365 18.6847 29.3558 18.8835C28.9751 19.0767 28.6768 19.3466 28.4609 19.6932C28.2507 20.0341 28.1456 20.4318 28.1456 20.8864C28.1456 21.3466 28.2536 21.7528 28.4695 22.1051C28.6854 22.4574 28.9837 22.733 29.3643 22.9318C29.745 23.1307 30.1797 23.2301 30.6683 23.2301Z" fill="black"/>
</svg>
