<svg width="227" height="50" viewBox="0 0 227 50" fill="none" xmlns="http://www.w3.org/2000/svg">
<g clip-path="url(#clip0_1224_768)">
<path d="M50.4761 35.6427V35.6304C50.4582 35.5264 50.4044 35.2694 50.3208 35.1409L49.9623 34.5106H49.8668L49.8309 34.4739C49.4486 34.07 49.0245 33.7702 48.6601 33.5315C48.0388 33.1399 47.4116 32.8033 46.7903 32.4913C47.1786 30.8146 47.3877 29.0768 47.3877 27.2777C47.3877 16.8751 40.5239 8.08789 31.1929 5.40768V5.37097C31.2706 4.72233 31.3482 4.05534 31.2825 3.32715C31.2108 2.3236 30.715 1.02633 29.5382 0.408293C29.2515 0.255313 28.9647 0.145168 28.678 0.0900947C28.5764 0.0656179 28.4629 0.0533795 28.3435 0.0411411L26.0973 -0.0078125C25.3984 -0.0078125 24.7712 0.0044259 24.1858 0.0350219C23.3494 0.0839755 22.4833 0.132929 21.5514 0.383816L21.4558 0.414412C21.2347 0.481724 20.9361 0.579631 20.5537 0.873353C20.4522 0.959021 20.2789 1.12424 20.2192 1.2405L19.8429 1.88914L19.8966 1.97481V1.99929C19.7234 2.54389 19.6756 3.06403 19.6517 3.50461C19.6218 4.11041 19.6338 4.70397 19.6517 5.2853C10.1057 7.83089 3.03881 16.7221 3.03881 27.2777C3.03881 29.242 3.29567 31.1512 3.75565 32.9747C3.33749 33.1644 2.90738 33.3724 2.47728 33.6294C1.40201 34.2658 0.691135 35.2571 0.529844 36.3525C0.440238 37.0562 0.553739 37.6987 0.852425 38.2739L1.4498 39.3754C1.90977 40.1892 2.33391 40.9052 2.75207 41.566C3.22996 42.3126 3.70786 43.0347 4.3351 43.7384C4.49639 43.9097 4.68755 44.1116 4.94442 44.3074C5.06389 44.3931 5.24311 44.5216 5.44621 44.6012C5.50595 44.6256 5.58361 44.6562 5.71503 44.693C5.80464 44.7174 5.94203 44.7358 6.04956 44.7358L6.37811 44.7113C6.96354 44.6318 7.45338 44.4237 7.90738 44.2034C8.46294 43.9158 8.98265 43.5976 9.48444 43.2672C13.5048 47.416 19.0663 49.9983 25.2132 49.9983C31.3602 49.9983 37.2742 47.2569 41.3184 42.8694C41.3662 42.9062 41.414 42.9367 41.4677 42.9796C41.9815 43.359 42.5131 43.7506 43.1702 44.0504C44.2754 44.5767 45.6075 44.5216 46.5095 43.9036C46.7784 43.7261 47.0113 43.5181 47.2085 43.2855C47.2742 43.206 47.3459 43.1142 47.4056 43.0102L48.2539 41.5293C48.7019 40.7277 49.0842 39.9934 49.4367 39.2652C49.7951 38.4942 50.1714 37.6987 50.4044 36.7564L50.4223 36.6584C50.4701 36.4259 50.5358 36.1138 50.4761 35.6427ZM46.7963 27.2838C46.7963 28.985 46.5991 30.6371 46.2407 32.2281C45.9719 32.0996 45.7091 31.9773 45.4402 31.8549C45.7569 30.3801 45.9361 28.8565 45.9361 27.2838C45.9361 17.6216 39.6338 9.48307 31.0137 6.913C31.0496 6.61928 31.0914 6.33168 31.1272 6.03184C40.1595 8.67533 46.7963 17.1933 46.7963 27.2838ZM3.63618 27.2838C3.63618 17.0525 10.4582 8.43057 19.6816 5.92169C19.6995 6.22154 19.7174 6.52138 19.7473 6.8151C10.954 9.2689 4.49639 17.4992 4.49639 27.2777C4.49639 29.0339 4.71145 30.7412 5.10571 32.375C4.96832 32.4362 4.83092 32.4913 4.69352 32.5525L4.3351 32.7116C4.3351 32.7116 4.31718 32.7177 4.30523 32.7238C3.86915 30.9798 3.6302 29.1563 3.6302 27.2777L3.63618 27.2838ZM25.2192 49.3925C19.2813 49.3925 13.905 46.9203 9.99818 42.9306C10.2371 42.7654 10.4761 42.6002 10.7091 42.4289C14.4486 46.186 19.5681 48.5113 25.2192 48.5113C30.8703 48.5113 36.3781 46.0025 40.1475 41.9883C40.3745 42.1657 40.6015 42.3371 40.8345 42.5145C36.8978 46.7429 31.3602 49.3925 25.2192 49.3925ZM27.9193 44.6073L25.2192 43.1509L22.5191 44.6073L23.0328 41.5293L20.8465 39.3509L23.8632 38.9042L25.2132 36.1016L26.5633 38.9042L29.58 39.3509L27.3936 41.5293L27.9074 44.6073H27.9193ZM49.9922 36.5667L49.9743 36.6523C49.7533 37.5396 49.3889 38.3167 49.0304 39.0816C48.6959 39.7792 48.3136 40.5013 47.8716 41.2968L47.0293 42.7715C46.9815 42.8511 46.9217 42.9245 46.8739 42.9857C46.7067 43.1876 46.5036 43.3651 46.2706 43.5181C45.494 44.0566 44.3411 44.0994 43.3614 43.6343C42.7401 43.359 42.2324 42.9796 41.7126 42.5941C41.5872 42.4962 41.4558 42.4044 41.3363 42.3187C39.1858 40.691 37.2204 39.1245 35.4582 37.7109L29.0065 32.4913L28.8751 32.5769C27.9193 33.1766 26.8261 33.4948 25.7031 33.4948C24.3829 33.4948 23.1224 33.0665 22.0591 32.2526L21.9098 32.1425L21.7724 32.271C20.8046 33.1644 19.5979 34.272 18.1882 35.5509L15.2192 38.2127L14.8907 38.5003C13.905 39.357 12.8895 40.2443 11.7604 41.0949L11.3005 41.4375C10.1953 42.2636 9.04836 43.1203 7.7222 43.8057C7.2443 44.0382 6.82614 44.2034 6.3363 44.2646L6.12722 44.2891H6.06151C5.99579 44.2891 5.89424 44.2707 5.8345 44.2585C5.73892 44.234 5.67919 44.2157 5.62542 44.1912C5.45816 44.1239 5.31479 44.0198 5.21921 43.9525C4.99221 43.7812 4.82495 43.6037 4.66963 43.4446C4.07226 42.7715 3.60033 42.0617 3.13438 41.3335C2.7222 40.6788 2.29806 39.9689 1.85004 39.1673L1.25266 38.072C0.995794 37.5886 0.906188 37.0378 0.977873 36.4382C1.12124 35.4836 1.74848 34.6146 2.71025 34.0455C3.31957 33.6845 3.92889 33.4153 4.52029 33.1521L4.87274 32.993C7.41157 31.8916 9.77118 30.937 11.85 30.0987L19.58 27.0268V26.88C19.6995 24.8361 20.7867 22.9759 22.4952 21.905L22.6266 21.8194L22.5968 21.6603C22.3459 20.3569 22.0292 18.7047 21.6768 16.8016L20.9779 12.8792L20.8763 12.2795C20.6792 11.1108 20.4582 9.78291 20.3327 8.41221L20.2849 7.86148C20.1595 6.47854 20.0281 5.05277 20.0938 3.55356C20.1177 3.14358 20.1654 2.65404 20.3148 2.15838L20.3865 1.94421L20.3626 1.9075L20.5956 1.50975C20.6195 1.4608 20.7091 1.36289 20.8285 1.25886C21.1392 1.02021 21.3781 0.946783 21.5872 0.879472L21.6708 0.854995C22.549 0.616346 23.3913 0.567392 24.2037 0.524558C24.7831 0.493962 25.3984 0.481724 26.0914 0.481724L28.3196 0.530677C28.4152 0.530677 28.5048 0.549035 28.5824 0.567392C28.8273 0.616346 29.0782 0.708134 29.3232 0.842757C30.3387 1.37513 30.7688 2.50106 30.8285 3.38834C30.8883 4.0737 30.8166 4.72233 30.7449 5.34649L30.6911 5.84214C30.3447 8.60802 29.9504 11.1353 29.6099 13.3688L28.3017 21.5807L28.451 21.6542C30.5179 22.725 31.8022 24.8667 31.8022 27.241V27.4062L31.9576 27.4552C33.1583 27.8529 34.6457 28.3486 36.3423 28.9238L40.0281 30.2027L40.6135 30.4169C41.7545 30.833 42.9432 31.2552 44.1499 31.7937L44.6637 32.0262C45.9002 32.5831 47.1726 33.1583 48.4152 33.9415C48.7557 34.1679 49.1499 34.4433 49.5024 34.8166L49.6637 34.994H49.6995L49.9205 35.3857C49.9504 35.4346 49.9922 35.5815 50.0221 35.7283C50.0699 36.1138 50.0221 36.3647 49.9743 36.585L49.9922 36.5667Z" fill="url(#paint0_linear_1224_768)"/>
<path d="M25.6901 25.6133C24.8299 25.6133 24.125 26.3353 24.125 27.2165C24.125 28.0977 24.8299 28.8197 25.6901 28.8197C26.5503 28.8197 27.2552 28.0977 27.2552 27.2165C27.2552 26.3353 26.5563 25.6133 25.6901 25.6133ZM25.6901 28.3363C25.0868 28.3363 24.5969 27.8346 24.5969 27.2165C24.5969 26.5985 25.0868 26.0967 25.6901 26.0967C26.2935 26.0967 26.7773 26.5985 26.7773 27.2165C26.7773 27.8346 26.2875 28.3363 25.6901 28.3363Z" fill="url(#paint1_linear_1224_768)"/>
<path d="M49.4712 35.5883L49.4533 35.5516V35.5332C49.3995 35.4598 49.4234 35.5027 49.4115 35.4843L49.3637 35.417C49.298 35.3191 49.2263 35.2395 49.1486 35.16C48.844 34.8357 48.5035 34.5909 48.1629 34.3706C46.783 33.4955 45.3374 32.8836 43.9575 32.2595C42.5596 31.6353 41.1797 31.158 39.8774 30.6868C38.5692 30.234 37.3326 29.8057 36.1916 29.4079C34.2382 28.7471 32.5596 28.1902 31.2812 27.768C31.2991 27.5905 31.3051 27.4131 31.3051 27.2295C31.3051 24.8063 29.8296 22.7258 27.7508 21.8874C27.9061 20.9267 28.3661 18.0568 28.9933 14.1222C29.3637 11.6867 29.8117 8.8474 30.2 5.78168C30.2776 5.00455 30.415 4.23965 30.3374 3.40743C30.2836 2.5997 29.8834 1.69406 29.0889 1.28407C28.8977 1.18004 28.6946 1.10049 28.4796 1.05766C28.4258 1.04542 28.3661 1.03318 28.3003 1.03318H28.151L27.8523 1.01483C27.4521 1.00871 27.0518 0.996468 26.6516 0.990349C25.8511 0.984229 25.0447 0.990349 24.2322 1.02706C23.4198 1.07602 22.6134 1.12497 21.795 1.34526C21.5859 1.41257 21.3888 1.46765 21.1558 1.6451C21.0901 1.70018 21.0184 1.77361 21.0064 1.8042L20.9825 1.8348L20.9706 1.85316C20.9288 1.92659 20.9527 1.88375 20.9407 1.90823L20.9049 1.98778C20.8571 2.0918 20.8212 2.20195 20.7854 2.30598C20.66 2.73432 20.6122 3.15655 20.5883 3.57265C20.5106 5.23708 20.6898 6.82195 20.8272 8.36399C20.9766 9.91826 21.2394 11.3869 21.4664 12.7821C21.7113 14.1711 21.9503 15.4929 22.1653 16.7045C22.5656 18.8768 22.918 20.7187 23.1868 22.0955C21.3469 23.0378 20.0745 24.9837 20.0745 27.2356C20.0745 27.2846 20.0745 27.3335 20.0805 27.3763C19.2263 27.7129 16.5202 28.7899 12.7926 30.2646C10.5226 31.1825 7.87621 32.2411 5.06259 33.4588C4.35769 33.777 3.64682 34.0708 2.94789 34.4869C2.26091 34.8907 1.60381 35.5822 1.46641 36.4878C1.41265 36.9345 1.45446 37.3935 1.67549 37.8096C1.87262 38.1706 2.06976 38.5317 2.27286 38.8988C2.67908 39.6209 3.09724 40.3368 3.54526 41.0405C3.99329 41.7442 4.45327 42.4357 5.02077 43.0721C5.16414 43.2312 5.31946 43.3842 5.50464 43.5249C5.60022 43.5922 5.70178 43.6595 5.82722 43.7146C5.85709 43.7269 5.89891 43.7391 5.93475 43.7452C5.97657 43.7575 6.04825 43.7636 6.06617 43.7636H6.10201C6.15578 43.7636 6.14383 43.7636 6.16773 43.7636L6.25136 43.7513C6.70536 43.6901 7.09963 43.5249 7.47597 43.3413C8.95148 42.5764 10.206 41.5974 11.4485 40.6734C12.691 39.7433 13.8141 38.7458 14.8774 37.8218C15.9288 36.8795 16.9264 35.9861 17.8463 35.1661C19.4951 33.673 20.8631 32.4063 21.8965 31.4517C22.8941 32.4002 24.2263 32.9815 25.6958 32.9815C26.9383 32.9815 28.0853 32.5593 29.0172 31.8556C29.7161 32.4186 31.9682 34.2482 35.0805 36.7693C36.9801 38.2869 39.1845 40.0676 41.6098 41.8972C42.237 42.3378 42.8224 42.8396 43.5692 43.1761C44.286 43.5188 45.2537 43.5984 45.9885 43.0905C46.1677 42.9681 46.335 42.8273 46.4784 42.656C46.5142 42.6132 46.55 42.5642 46.5859 42.5091L46.6635 42.3806L46.8189 42.1175C47.022 41.7626 47.2191 41.4077 47.4222 41.0528C47.8165 40.3368 48.2048 39.6148 48.5632 38.8682C48.9156 38.1217 49.2681 37.3751 49.4772 36.5307C49.519 36.3104 49.5727 36.1084 49.5369 35.8147C49.519 35.7291 49.4951 35.6312 49.4772 35.6006L49.4712 35.5883ZM30.8332 27.2234C30.8332 27.3519 30.8212 27.4804 30.8153 27.6089C30.7615 27.5905 30.7078 27.5722 30.66 27.5599C29.9551 27.3335 29.4115 27.1561 29.0471 27.0398C28.9515 25.2224 27.4939 23.7721 25.6958 23.7721C25.2836 23.7721 24.9013 23.8578 24.5369 23.9985C24.4533 23.6253 24.3338 23.0684 24.1785 22.3586C24.1665 22.3096 24.1546 22.2607 24.1486 22.2117C24.6385 22.0526 25.1582 21.967 25.7018 21.967C28.5333 21.967 30.8392 24.329 30.8392 27.2295L30.8332 27.2234ZM28.1152 27.2234C28.1152 28.588 27.0279 29.7016 25.6958 29.7016C24.3637 29.7016 23.2764 28.588 23.2764 27.2234C23.2764 25.8588 24.3637 24.7451 25.6958 24.7451C27.0279 24.7451 28.1152 25.8588 28.1152 27.2234ZM22.9539 16.5331C22.7149 15.3276 22.458 14.0181 22.1892 12.6352C21.9383 11.2523 21.6516 9.78976 21.4784 8.27832C21.3111 6.75464 21.114 5.16364 21.1618 3.59101C21.1797 3.19938 21.2155 2.80775 21.3171 2.45284C21.341 2.36717 21.3708 2.27538 21.4067 2.19583L21.4306 2.13464L21.4485 2.11016C21.4843 2.04897 21.4963 2.06121 21.5023 2.05509C21.5859 1.98778 21.777 1.90211 21.9503 1.85316C22.6731 1.63898 23.4796 1.57167 24.2681 1.51048C25.0626 1.45541 25.8631 1.43093 26.6576 1.42481C27.0578 1.42481 27.4521 1.42481 27.8463 1.42481H28.145L28.2944 1.43093C28.3302 1.43093 28.3661 1.43705 28.4138 1.44317C28.5871 1.47377 28.7603 1.53496 28.9156 1.62063C29.5727 1.94494 29.9312 2.68537 30.0028 3.43803C30.0865 4.18457 29.967 4.98619 29.9073 5.73885C29.5787 8.79845 29.1785 11.65 28.8499 14.0916C28.2944 18.0323 27.8822 20.9145 27.7448 21.8752C27.1116 21.6182 26.4186 21.4713 25.6958 21.4713C25.1223 21.4713 24.5668 21.5631 24.0411 21.7283C23.7543 20.3821 23.378 18.6075 22.9598 16.5331H22.9539ZM17.3087 34.5481C16.4067 35.3864 15.433 36.292 14.3995 37.2527C13.3541 38.2012 12.2669 39.2048 11.0602 40.141C9.85351 41.0711 8.605 42.0808 7.23105 42.8212C6.89054 42.9987 6.53212 43.1455 6.17967 43.2006C5.98254 43.2924 5.65399 42.9742 5.39114 42.705C4.85351 42.1236 4.38756 41.4444 3.93356 40.7652C3.47955 40.0798 3.04945 39.3761 2.63726 38.6663C2.43415 38.3114 2.23105 37.9565 2.02794 37.6015C1.8547 37.2956 1.80094 36.8917 1.84275 36.5307C1.93833 35.7841 2.48194 35.1661 3.1271 34.7683C3.77824 34.3645 4.50106 34.0463 5.18804 33.7281C7.96581 32.4614 10.6002 31.3538 12.8523 30.3931C16.55 28.8511 19.2382 27.7251 20.0865 27.3702C20.1164 28.6491 20.5584 29.824 21.2812 30.7664C20.2717 31.7393 18.9276 33.0244 17.3087 34.5481ZM21.6277 30.4298C20.9586 29.5425 20.5524 28.4289 20.5524 27.2172C20.5524 25.204 21.6635 23.4539 23.2884 22.5667C23.4676 23.4723 23.599 24.1209 23.6707 24.4697C22.8583 25.1 22.3207 26.0913 22.3207 27.2111C22.3207 27.9393 22.5417 28.6124 22.918 29.1693C22.6492 29.4324 22.2131 29.8546 21.6277 30.4237V30.4298ZM25.6898 32.4798C24.3637 32.4798 23.157 31.9596 22.243 31.1091C22.8404 30.5522 23.2824 30.13 23.5632 29.873C24.1426 30.3625 24.8774 30.6685 25.6898 30.6685C27.2788 30.6685 28.611 29.5303 28.9634 28.0127C29.3159 28.1168 29.7878 28.2636 30.3852 28.4411C30.4748 28.4656 30.5704 28.4962 30.6659 28.5268C30.0984 30.797 28.0853 32.4859 25.6958 32.4859L25.6898 32.4798ZM48.9694 36.4022C48.7962 37.1548 48.4676 37.9075 48.1331 38.6418C47.7926 39.3822 47.4282 40.1043 47.0459 40.8202C46.8547 41.1751 46.6576 41.5301 46.4664 41.885L46.3171 42.1481L46.2454 42.2766C46.2275 42.3072 46.2036 42.3378 46.1737 42.3745C46.0602 42.5153 45.9228 42.6376 45.7794 42.7417C45.1821 43.17 44.3756 43.1333 43.7066 42.8335C43.0256 42.5459 42.4043 42.0502 41.789 41.628C39.3398 39.8473 37.0996 38.1094 35.1761 36.6286C32.022 34.1687 29.734 32.3819 29.0291 31.8311C30.0447 31.0601 30.7974 29.9464 31.1259 28.6553C32.3983 29.0469 34.0411 29.5609 35.9527 30.1667C37.0996 30.54 38.3362 30.9438 39.6504 31.3722C40.9527 31.8189 42.3386 32.2717 43.7125 32.853C45.0925 33.4466 46.5441 34.0402 47.8702 34.8418C48.1928 35.0437 48.5094 35.2701 48.7663 35.5332C48.832 35.6006 48.8917 35.6618 48.9395 35.7352L48.9813 35.7903L48.9933 35.8147C49.0291 35.8759 49.0112 35.882 49.0172 35.8943C49.0351 36.0044 49.0112 36.2125 48.9754 36.3899L48.9694 36.4022Z" fill="url(#paint2_linear_1224_768)"/>
</g>
<path d="M69.6858 24.26H77.7498V27.38H69.6858V24.26ZM69.9738 33.5H66.0858V16.7H78.7818V19.82H69.9738V33.5ZM81.4139 33.5V16.7H88.6859C90.1899 16.7 91.4859 16.948 92.5739 17.444C93.6619 17.924 94.5019 18.62 95.0939 19.532C95.6859 20.444 95.9819 21.532 95.9819 22.796C95.9819 24.044 95.6859 25.124 95.0939 26.036C94.5019 26.932 93.6619 27.62 92.5739 28.1C91.4859 28.58 90.1899 28.82 88.6859 28.82H83.5739L85.3019 27.116V33.5H81.4139ZM92.0939 33.5L87.8939 27.404H92.0459L96.2939 33.5H92.0939ZM85.3019 27.548L83.5739 25.724H88.4699C89.6699 25.724 90.5659 25.468 91.1579 24.956C91.7499 24.428 92.0459 23.708 92.0459 22.796C92.0459 21.868 91.7499 21.148 91.1579 20.636C90.5659 20.124 89.6699 19.868 88.4699 19.868H83.5739L85.3019 18.02V27.548ZM102.638 23.468H110.726V26.492H102.638V23.468ZM102.926 30.38H112.07V33.5H99.0623V16.7H111.758V19.82H102.926V30.38ZM118.74 23.468H126.828V26.492H118.74V23.468ZM119.028 30.38H128.172V33.5H115.164V16.7H127.86V19.82H119.028V30.38ZM141.662 24.26H149.726V27.38H141.662V24.26ZM141.95 33.5H138.062V16.7H150.758V19.82H141.95V33.5ZM153.39 33.5V16.7H157.278V30.332H165.702V33.5H153.39ZM167.875 33.5V16.7H171.763V33.5H167.875ZM183.862 33.788C182.534 33.788 181.31 33.58 180.19 33.164C179.086 32.732 178.118 32.124 177.286 31.34C176.47 30.556 175.83 29.636 175.366 28.58C174.918 27.524 174.694 26.364 174.694 25.1C174.694 23.836 174.918 22.676 175.366 21.62C175.83 20.564 176.478 19.644 177.31 18.86C178.142 18.076 179.118 17.476 180.238 17.06C181.358 16.628 182.59 16.412 183.934 16.412C185.422 16.412 186.758 16.66 187.942 17.156C189.142 17.652 190.15 18.372 190.966 19.316L188.47 21.62C187.862 20.98 187.198 20.508 186.478 20.204C185.758 19.884 184.974 19.724 184.126 19.724C183.31 19.724 182.566 19.852 181.894 20.108C181.222 20.364 180.638 20.732 180.142 21.212C179.662 21.692 179.286 22.26 179.014 22.916C178.758 23.572 178.63 24.3 178.63 25.1C178.63 25.884 178.758 26.604 179.014 27.26C179.286 27.916 179.662 28.492 180.142 28.988C180.638 29.468 181.214 29.836 181.87 30.092C182.542 30.348 183.278 30.476 184.078 30.476C184.846 30.476 185.59 30.356 186.31 30.116C187.046 29.86 187.758 29.436 188.446 28.844L190.654 31.652C189.742 32.34 188.678 32.868 187.462 33.236C186.262 33.604 185.062 33.788 183.862 33.788ZM187.102 31.148V24.836H190.654V31.652L187.102 31.148ZM205.785 16.7H209.673V33.5H205.785V16.7ZM198.153 33.5H194.265V16.7H198.153V33.5ZM206.073 26.612H197.865V23.324H206.073V26.612ZM217.128 33.5V19.868H211.752V16.7H226.392V19.868H221.016V33.5H217.128Z" fill="#FFC4C4"/>
<defs>
<linearGradient id="paint0_linear_1224_768" x1="25.5" y1="-0.0078125" x2="25.5" y2="49.9983" gradientUnits="userSpaceOnUse">
<stop stop-color="#FFCD43"/>
<stop offset="1" stop-color="#DD010F"/>
</linearGradient>
<linearGradient id="paint1_linear_1224_768" x1="25.6901" y1="25.6133" x2="25.6901" y2="28.8197" gradientUnits="userSpaceOnUse">
<stop stop-color="#FFCD43"/>
<stop offset="1" stop-color="#DD010F"/>
</linearGradient>
<linearGradient id="paint2_linear_1224_768" x1="25.497" y1="0.988281" x2="25.497" y2="43.7636" gradientUnits="userSpaceOnUse">
<stop stop-color="#FFCD43"/>
<stop offset="1" stop-color="#DD010F"/>
</linearGradient>
<clipPath id="clip0_1224_768">
<rect width="50" height="50" fill="white" transform="translate(0.5)"/>
</clipPath>
</defs>
</svg>
