<svg width="247" height="64" viewBox="0 0 247 64" fill="none" xmlns="http://www.w3.org/2000/svg">
<path d="M35.0506 32.9924C35.0741 33.5924 35.289 34.206 34.8841 34.7502C34.4893 35.2804 33.8982 35.4 33.2748 35.4821C33.2555 35.5462 33.2363 35.6136 33.2152 35.6802C33.1455 35.8997 32.9831 35.9986 32.7647 36.0091C32.5456 36.0196 32.3805 35.9109 32.3384 35.7019C32.3016 35.5196 32.2031 35.5049 32.0544 35.4887C31.2039 35.3979 30.3547 35.2927 29.5038 35.2054C29.4155 35.1963 29.311 35.2591 29.2272 35.3103C29.0425 35.4232 28.8808 35.6094 28.6834 35.6581C28.3199 35.7482 28.0622 35.9733 27.7779 36.1841C26.9214 36.8191 26.0505 37.4349 25.1866 38.0601C24.3231 38.685 23.5567 39.4066 22.9677 40.3029C22.9029 40.4015 22.8457 40.506 22.7917 40.6108C22.6578 40.8703 22.6168 41.1357 22.8117 41.3808C23.0154 41.6368 23.306 41.6971 23.6023 41.6221C23.9182 41.5421 24.2313 41.432 24.5275 41.2963C25.9674 40.6367 27.3217 39.8383 28.5138 38.7835C28.7385 38.5847 28.9737 38.3978 29.1697 38.234C29.08 38.4251 28.9881 38.7071 28.8296 38.9445C28.2368 39.8323 27.4388 40.52 26.5336 41.0593C25.4152 41.7255 24.2568 42.3245 23.116 42.9529C23.061 42.983 23.0066 43.0142 22.9179 43.064C24.612 43.7429 25.7129 45.006 26.5729 46.5222C25.9436 46.3472 25.5004 45.9008 25.0022 45.479C24.8834 45.6988 24.7617 45.9078 24.6551 46.1238C24.4497 46.5408 24.2754 46.9745 24.0468 47.3778C23.8088 47.7975 23.773 48.2166 23.8446 48.6868C24.0924 50.3146 24.3242 51.9451 24.5352 53.5781C24.6439 54.4183 24.6965 55.2655 24.7747 56.1095C24.7887 56.26 24.8041 56.4104 24.8778 56.5665C25.039 56.0387 25.2049 55.512 25.3605 54.9829C26.1143 52.4231 26.8639 49.8622 27.618 47.3024C28.1712 45.4243 28.7739 43.5588 29.2672 41.6649C29.5249 40.676 29.5985 39.6384 29.7457 38.6215C29.7713 38.4444 29.7493 38.2603 29.7493 38.057C29.982 38.3347 30.2064 38.6247 30.4543 38.8926C30.8189 39.2871 31.1667 39.7079 31.5843 40.0389C31.9408 40.3212 32.3682 40.5351 32.7942 40.7037C33.8351 41.1161 34.8935 41.4846 35.945 41.8711C35.9954 41.8897 36.0442 41.9121 36.1231 41.9447C35.9951 42.3564 35.8689 42.7617 35.743 43.1674C35.7132 43.2632 35.6855 43.3596 35.6564 43.4553C35.4201 44.2296 35.4222 44.2331 36.2647 44.4074C36.4814 43.6773 36.6991 42.943 36.9231 42.1874C37.2071 42.2996 37.4578 42.3985 37.7368 42.5086C37.5629 43.0735 37.388 43.6254 37.2243 44.1809C37.0493 44.7745 36.9459 44.6286 37.5479 44.8748C37.639 44.912 37.7337 44.9393 37.8592 44.9825C38.0843 44.2429 38.3062 43.5149 38.5379 42.7537C38.8111 42.8494 39.0649 42.9385 39.3292 43.0314C39.1013 43.7772 38.8819 44.4964 38.6554 45.237C38.912 45.3408 39.1529 45.438 39.4274 45.5491C39.6465 44.8099 39.8621 44.0827 40.0911 43.3112C40.3614 43.4038 40.6212 43.4925 40.9083 43.591C40.7379 44.1517 40.5749 44.6886 40.4115 45.2255C40.3744 45.3475 40.3456 45.4734 40.2965 45.5901C40.2208 45.7697 40.2818 45.8542 40.4603 45.904C40.6513 45.9573 40.8357 46.0337 41.058 46.1126C41.2705 45.3612 41.4773 44.6307 41.6933 43.8667C42.0982 44.009 42.4832 44.1377 42.8611 44.2843C42.9186 44.3064 42.9631 44.4067 42.981 44.4786C43.5031 46.5517 44.0177 48.6268 44.544 50.6989C44.5966 50.9058 44.5503 51.0054 44.3662 51.106C41.5527 52.6443 38.6193 53.905 35.5709 54.8952C33.2811 55.639 30.9409 56.1744 28.5583 56.5237C25.4713 56.976 22.3735 57.1482 19.2616 56.8543C16.2745 56.5724 13.312 56.118 10.4427 55.222C7.14787 54.1932 3.98411 52.8351 0.939198 51.2059C0.440654 50.9394 0.441004 50.9373 0.578437 50.3819C1.05735 48.4459 1.54047 46.511 2.01131 44.5732C2.0625 44.3621 2.15856 44.2461 2.36261 44.1861C2.67464 44.0946 2.98141 43.9841 3.31517 43.8733C3.53429 44.6167 3.7464 45.3373 3.96728 46.0863C4.23934 45.9913 4.48475 45.9057 4.76313 45.8086C4.54681 45.0614 4.3354 44.3316 4.11628 43.5753C4.39781 43.4809 4.65164 43.3961 4.92791 43.3035C5.15053 44.0546 5.36685 44.784 5.58141 45.507C5.61577 45.5105 5.63505 45.5183 5.65048 45.5134C6.38182 45.2819 6.37796 45.283 6.15148 44.5543C6.00563 44.0848 5.87311 43.611 5.73637 43.1387C5.72656 43.105 5.73112 43.0672 5.72796 43.0097C5.96566 42.9262 6.20301 42.8434 6.47753 42.747C6.70401 43.4974 6.92804 44.2391 7.15803 45.001C7.42343 44.9102 7.66043 44.8289 7.92899 44.737C7.71162 43.9838 7.49881 43.246 7.28214 42.4938C7.56052 42.3897 7.80488 42.2985 8.08045 42.1954C8.30342 42.9504 8.52114 43.6882 8.74447 44.4445C8.95307 44.3688 9.13643 44.2934 9.32505 44.2366C9.50771 44.1816 9.53576 44.0841 9.48107 43.9091C9.29105 43.3003 9.114 42.6877 8.93379 42.0759C8.91872 42.025 8.91521 41.971 8.9068 41.9219C9.96103 41.5443 10.9946 41.1382 12.0513 40.8054C13.0284 40.4979 13.752 39.8807 14.3859 39.1194C14.6769 38.7698 14.9689 38.4209 15.2606 38.0713C15.2788 38.085 15.3037 38.0948 15.3037 38.1043C15.2894 39.7889 15.6624 41.4103 16.1301 43.0118C17.1429 46.4805 18.1702 49.945 19.1953 53.4102C19.4972 54.4313 19.811 55.4486 20.1205 56.4676C20.1349 56.5145 20.1598 56.5584 20.2138 56.6815C20.2594 56.1222 20.2871 55.646 20.3386 55.1722C20.4704 53.959 20.5998 52.7453 20.7544 51.5349C20.8904 50.4689 21.0619 49.4074 21.2102 48.3428C21.2298 48.2019 21.2498 48.0349 21.1951 47.9136C20.8263 47.0931 20.4378 46.2813 20.0567 45.4695C19.4379 45.8801 18.8598 46.2641 18.2817 46.6477C19.2546 45.1518 20.3078 43.753 22.1074 43.0819C22.0001 43.0216 21.9293 42.9802 21.8574 42.9409C20.8021 42.3634 19.7363 41.8044 18.695 41.2031C17.7993 40.6858 16.9796 40.0617 16.3247 39.246C16.0081 38.8519 15.8209 38.4322 15.8447 37.8953C15.8917 36.8391 15.8798 35.7798 15.8815 34.7218C15.8815 34.6121 15.8307 34.4918 15.7728 34.3947C15.4612 33.8694 15.1449 33.3469 14.8168 32.8321C14.7701 32.7589 14.6485 32.6905 14.5629 32.6922C13.8162 32.7073 13.1437 32.4927 12.527 32.0814C12.4688 32.0425 12.398 32.0123 12.3293 32.0014C11.1864 31.8209 10.2867 31.3082 9.80993 30.1934C9.77802 30.1191 9.62937 30.0416 9.54558 30.0518C9.25984 30.0865 9.14099 29.9508 9.09927 29.6973C9.05825 29.4455 9.01303 29.1944 8.97411 28.9423C8.90995 28.5261 8.96394 28.4496 9.40639 28.362C9.37554 28.0067 9.3247 27.6466 9.31699 27.2861C9.30192 26.5771 9.2311 25.8569 9.32751 25.1608C9.49053 23.9815 10.2264 23.1799 11.274 22.6522C11.5822 22.4969 11.6372 22.047 11.3617 21.8359C10.9059 21.487 10.4228 21.1728 9.97891 20.8098C9.1438 20.1268 8.48503 19.3097 8.2326 18.2307C8.00261 17.2482 8.22734 16.3091 8.57724 15.3981C9.33768 13.418 10.6615 11.8589 12.303 10.5601C14.5741 8.76438 17.1724 7.68049 20.0182 7.22218C24.6797 6.47142 28.8833 7.64052 32.614 10.4682C34.4896 11.8898 35.9159 13.6967 36.6574 15.9855C37.2407 17.7865 36.7306 19.2694 35.3738 20.496C34.8623 20.9585 34.2758 21.3376 33.7239 21.7556C33.4466 21.9656 33.3779 22.1409 33.4834 22.4586C33.5097 22.5375 33.6079 22.6077 33.6896 22.6501C34.2628 22.9485 34.7796 23.3142 35.1466 23.8585C35.5176 24.4086 35.7297 25.0212 35.7153 25.6819C35.6981 26.4828 35.6252 27.2826 35.5779 28.0832C35.5723 28.181 35.5772 28.2792 35.5772 28.3753C36.0768 28.45 36.0845 28.4601 36.0077 28.9686C35.967 29.2386 35.9313 29.5097 35.8801 29.7779C35.8489 29.941 35.7665 30.056 35.5677 30.0567C35.2206 30.0577 35.0232 30.2422 35.0148 30.5879C35.004 31.0438 35.011 31.5004 35.0225 31.9562C35.0243 32.0218 35.0804 32.1049 35.1361 32.1466C35.5263 32.4394 35.5057 32.7694 35.0506 32.9924ZM27.6643 29.6566C27.6678 29.6247 27.6713 29.5924 27.6744 29.5605C27.8725 29.5388 28.0724 29.5261 28.2687 29.4939C29.3734 29.3119 30.2751 28.8164 30.8715 27.83C31.4829 26.8187 31.627 25.7198 31.5194 24.5692C31.4444 23.768 31.1902 23.039 30.6194 22.4485C30.5549 22.3818 30.4508 22.3022 30.373 22.3096C30.1798 22.3275 29.9912 22.3924 29.8232 22.433C30.0711 22.7346 30.374 22.9962 30.543 23.3269C31.2193 24.6499 31.1306 25.9943 30.4697 27.2882C29.9729 28.2606 29.1224 28.7761 28.0313 28.855C27.0784 28.9241 26.291 28.5201 25.6031 27.9075C24.6944 27.0982 23.9571 26.1574 23.4722 25.0293C23.407 24.8775 23.3043 24.7109 23.1714 24.6236C22.5835 24.2389 21.7739 24.5054 21.4903 25.1405C20.9522 26.3457 20.1528 27.3633 19.1252 28.1758C17.5212 29.4441 15.3724 28.9581 14.4669 27.162C14.0409 26.3173 13.9732 25.4189 14.0738 24.4956C14.1545 23.7582 14.4749 23.1407 15.0001 22.6231C15.0496 22.5743 15.0902 22.5168 15.139 22.4586C14.6141 22.263 14.5082 22.283 14.1973 22.6957C14.056 22.8833 13.9301 23.0888 13.833 23.3027C13.3523 24.3624 13.3727 25.4645 13.6191 26.5683C14.2036 29.1832 16.9449 30.3088 19.2093 28.8785C19.8846 28.4521 20.4084 27.8689 20.8841 27.2444C21.22 26.8036 21.505 26.3243 21.8129 25.8618C21.9591 25.6423 22.0863 25.4003 22.3798 25.3445C22.7062 25.2825 22.9025 25.3989 23.1349 25.7979C23.7313 26.8208 24.4399 27.7522 25.3475 28.5212C25.5323 28.6776 25.7258 28.8238 25.9152 28.9749L25.8741 29.05C25.4885 28.8578 25.0828 28.6975 24.7214 28.4675C23.9396 27.9699 23.4207 27.2332 22.966 26.4414C22.892 26.3124 22.7002 26.1612 22.5775 26.1732C22.4317 26.1872 22.2774 26.3471 22.1729 26.4803C22.1032 26.569 22.0972 26.7205 22.0919 26.845C22.067 27.4282 22.0485 28.012 22.0348 28.5955C22.0215 29.1597 22.0961 29.2575 22.6389 29.4451C22.9993 29.5696 23.3677 29.6759 23.7152 29.8302C23.996 29.955 23.9929 30.1482 23.7271 30.3102C23.5255 30.4329 23.3043 30.5238 23.0995 30.6423C22.5491 30.9614 22.0281 31.3187 21.6365 31.8103C21.8858 31.885 22.1189 31.9562 22.3528 32.0235C22.4026 32.0379 22.4695 32.0621 22.506 32.0418C22.9242 31.8082 23.346 31.9443 23.7594 32.0376C24.1569 32.1277 24.5447 32.2592 24.937 32.3724C24.9317 32.3984 24.9261 32.4243 24.9209 32.4503C24.8329 32.4503 24.7449 32.4485 24.6569 32.4503C23.8186 32.4692 22.98 32.4759 22.1431 32.5211C21.9987 32.5288 21.7711 32.6814 21.7445 32.8027C21.7003 33.0054 21.9142 33.1046 22.1039 33.1285C22.4274 33.1688 22.7546 33.1828 23.0785 33.2214C23.1633 33.2316 23.2983 33.2799 23.3102 33.3332C23.3267 33.4055 23.2675 33.5229 23.2037 33.5794C23.1037 33.6681 22.98 33.739 22.8545 33.7873C22.4474 33.9448 22.0285 34.0731 21.626 34.2407C20.942 34.5258 20.7681 35.2328 21.2379 35.8092C21.6477 36.3124 22.2266 36.5127 22.8373 36.6112C24.2775 36.8433 25.6193 36.4937 26.908 35.8734C27.0073 35.8257 27.0967 35.7587 27.178 35.7086C26.8439 35.5462 26.5154 35.4267 26.2314 35.2398C25.8047 34.9589 25.6536 34.4361 25.7896 33.9003C25.9222 33.3788 26.216 32.9661 26.7776 32.9528C27.7106 32.9303 28.5723 33.2161 29.3303 33.7312C29.5133 32.3325 29.7002 30.9028 29.8884 29.463C29.4846 29.5374 29.1231 29.6317 28.756 29.6636C28.3946 29.6948 28.0278 29.6625 27.6632 29.6583L27.6643 29.6566ZM15.5267 17.6402C19.8948 16.6451 24.2614 16.5223 28.6614 17.4113C28.6614 17.0799 28.641 16.7874 28.6673 16.4992C28.6926 16.2215 28.5744 16.1342 28.322 16.0665C26.8702 15.6787 25.3872 15.5072 23.8936 15.443C22.1344 15.3676 20.3726 15.3946 18.634 15.7109C17.6597 15.888 16.7001 16.1447 15.7332 16.3617C15.5726 16.3979 15.5158 16.4796 15.5229 16.6468C15.5365 16.9649 15.5267 17.2843 15.5267 17.6399V17.6402ZM15.3591 51.4977C15.3542 49.4491 13.6472 47.7278 11.5794 47.7684C9.31243 47.813 7.72389 49.5256 7.76807 51.5605C7.8154 53.7307 9.40008 55.2883 11.5692 55.303C14.0507 55.3199 15.371 53.2906 15.3588 51.4977H15.3591ZM22.5084 22.0841C22.8275 22.0841 23.1462 22.0883 23.4652 22.0834C25.3244 22.0547 27.179 21.947 29.0176 21.6633C29.9158 21.5245 30.8063 21.3302 31.6943 21.1338C31.8696 21.0949 32.0257 20.9417 32.1726 20.8197C32.2073 20.7909 32.1964 20.6548 32.1585 20.6047C32.1207 20.5546 32.019 20.5237 31.9513 20.5318C31.836 20.5458 31.7266 20.6022 31.6123 20.6328C29.4158 21.2194 27.1661 21.4207 24.9068 21.4831C21.7617 21.5701 18.6165 21.5322 15.4962 21.0585C14.7158 20.9399 13.9476 20.7376 13.1781 20.556C13.0347 20.5219 12.8713 20.4087 12.8233 20.6058C12.7931 20.7285 12.8762 20.9203 12.9719 21.0206C13.0617 21.1146 13.231 21.1472 13.372 21.1752C14.2193 21.3435 15.0643 21.5325 15.9183 21.6588C18.1022 21.9814 20.3032 22.0869 22.5088 22.0841H22.5084ZM22.73 18.6067C22.9709 19.1852 23.2075 19.7547 23.4445 20.3238C23.7061 20.9519 23.9049 21.0967 24.5868 21.0528C25.7048 20.9813 26.8228 20.9014 27.9374 20.7895C28.5348 20.7295 29.1252 20.5959 29.7121 20.4963C29.2384 20.119 28.8019 19.7663 28.3595 19.4209C28.0215 19.1568 27.6471 18.9738 27.171 18.9261C27.4651 19.3988 27.7365 19.835 28.0457 20.3319C27.7084 20.2677 27.4423 20.2134 27.1752 20.1671C26.677 20.0812 26.2756 19.8434 25.9642 19.4409C25.7805 19.2031 25.5761 18.9808 25.371 18.7613C25.3076 18.6933 25.2105 18.6147 25.1277 18.6137C24.3445 18.6024 23.5613 18.607 22.7307 18.607L22.73 18.6067ZM33.949 31.5631C33.6826 31.689 33.4568 31.8359 33.2093 31.9036C32.7363 32.033 32.3103 32.2743 31.8546 32.431C31.3974 32.5881 30.8974 32.6211 30.4168 32.7115C30.3414 32.7255 30.2324 32.7326 30.2015 32.782C29.9649 33.16 29.7314 33.5408 29.5228 33.9346C29.4127 34.1426 29.508 34.2954 29.7464 34.3459C30.049 34.4098 30.3526 34.4771 30.6594 34.5143C31.1983 34.5791 31.7399 34.6223 32.2974 34.6763C32.3202 34.3361 32.4439 34.1138 32.751 34.1082C33.0676 34.1026 33.1966 34.3323 33.2321 34.6135C34.3214 34.5633 34.3291 34.2004 34.2141 33.3834C34.1857 33.1818 34.1345 33.0103 33.9346 32.8872C33.718 32.7536 33.718 32.4875 33.8459 32.329C34.0496 32.0768 33.9252 31.8363 33.9483 31.5631H33.949ZM32.419 19.8539C32.5084 19.5794 32.3987 19.3886 32.108 19.2638C31.7319 19.1021 31.363 18.9219 30.9963 18.7395C30.8494 18.6666 30.7425 18.6775 30.6019 18.7753C30.211 19.0467 29.6073 18.8325 29.4379 18.3945C29.4039 18.3065 29.3051 18.1992 29.2199 18.1824C28.2294 17.9867 27.2422 17.7609 26.2423 17.6329C24.4763 17.407 22.6999 17.3492 20.9199 17.4579C19.2339 17.561 17.5679 17.7938 15.9236 18.1827C15.7476 18.2244 15.5688 18.2521 15.5541 18.506C15.5491 18.5891 15.4384 18.6912 15.3511 18.7395C15.058 18.9016 14.7558 18.9433 14.4413 18.7687C14.3596 18.7234 14.2239 18.7055 14.1429 18.7417C13.719 18.9307 13.3078 19.1477 12.8857 19.3413C12.6326 19.4573 12.5684 19.6306 12.6641 19.9058C12.7626 19.8539 12.8482 19.8063 12.9358 19.7635C13.0259 19.7196 13.1181 19.68 13.21 19.6404C15.9432 18.4576 18.824 17.9706 21.7774 17.9281C23.2868 17.9064 24.8017 18.0046 26.3078 18.1248C27.4872 18.2192 28.6522 18.4471 29.7689 18.8732C30.6422 19.2063 31.5222 19.5226 32.4187 19.8536L32.419 19.8539ZM34.5398 52.1201C34.6386 51.363 34.7698 50.6628 34.808 49.9572C34.8343 49.4747 34.7522 48.9814 34.6709 48.501C34.6492 48.3726 34.4686 48.2075 34.334 48.1763C34.1261 48.1282 34.0247 48.3228 33.969 48.5066C33.9294 48.637 33.8743 48.7703 33.8729 48.9028C33.867 49.439 33.8512 49.9772 33.8922 50.5106C33.9325 51.038 34.0367 51.5605 34.1138 52.0903C33.7418 52.071 33.3776 52.071 33.0182 52.0286C32.5666 51.9753 32.4611 52.0324 32.316 52.5276C32.5957 52.6254 32.878 52.7229 33.1591 52.8221C33.3541 52.8909 33.5458 52.9708 33.7436 53.0301C33.9851 53.1023 34.2474 53.2429 34.4725 53.2012C34.8539 53.1307 35.2129 52.9392 35.5821 52.8014C35.8331 52.7078 36.0862 52.6191 36.3558 52.5216C36.3026 52.4101 36.2682 52.3375 36.2338 52.2649C36.1195 52.0244 35.9726 51.9364 35.6771 52.0072C35.3111 52.0949 34.9219 52.0864 34.5398 52.1198V52.1201ZM14.1029 31.8226C14.0104 31.4695 13.9312 31.1532 13.8442 30.839C13.3408 29.0254 12.9947 27.1813 12.9656 25.2986C12.9495 24.2554 13.0733 23.2094 13.1497 22.1655C13.1651 21.9551 13.0652 21.8878 12.9036 21.8418C12.7251 21.791 12.6445 21.8962 12.6171 22.0459C12.5747 22.2784 12.5379 22.513 12.5172 22.7483C12.3339 24.8575 12.4352 26.9537 12.8643 29.0268C13.0466 29.9066 13.2997 30.7717 13.5161 31.6445C13.5627 31.8324 13.6391 31.9397 13.8533 31.8573C13.9178 31.8324 13.9932 31.8366 14.1026 31.8226H14.1029ZM39.5252 49.2363C39.4965 49.2209 39.4821 49.2061 39.4674 49.2061C38.2455 49.2058 37.0237 49.2037 35.8023 49.2093C35.5228 49.2107 35.2403 49.4288 35.1838 49.7023C35.0948 50.1354 35.0334 50.5744 34.9664 50.9731C35.6897 50.9107 36.4021 50.864 37.1103 50.782C37.4739 50.7399 37.7435 50.5057 38.0152 50.1911H36.419C36.4186 50.1676 36.4183 50.1441 36.4176 50.1207C36.5403 50.1105 36.663 50.0961 36.786 50.0912C37.3505 50.0684 37.9163 50.0667 38.4787 50.0221C38.9793 49.9825 39.3387 49.7181 39.5249 49.2366L39.5252 49.2363ZM30.8957 31.8103C31.2306 31.8889 31.4454 31.7746 31.5401 31.4674C32.1333 29.5528 32.4513 27.5895 32.5372 25.5907C32.587 24.4342 32.5754 23.2764 32.3882 22.1283C32.3394 21.8288 32.1543 21.7345 31.9415 21.9197C31.8654 21.9859 31.8507 22.1602 31.8602 22.2812C31.9163 23.0067 32.0306 23.7305 32.0456 24.4563C32.087 26.4337 31.7929 28.3749 31.3143 30.2895C31.1867 30.7994 31.0356 31.3033 30.8953 31.8103H30.8957ZM33.6815 50.9517C33.658 50.8181 33.6247 50.641 33.596 50.4632C33.5651 50.2746 33.5427 50.0845 33.5094 49.8962C33.4172 49.379 33.2075 49.2047 32.675 49.203C31.572 49.1998 30.4694 49.1981 29.3664 49.1974C29.3001 49.1974 29.2342 49.2128 29.1487 49.2233C29.3587 49.71 29.7068 49.9818 30.198 50.0183C30.7968 50.0628 31.3984 50.0624 31.999 50.0842C32.1182 50.0884 32.2367 50.1066 32.3556 50.1185C32.3538 50.1473 32.3517 50.1761 32.35 50.2045H30.7141C31.0198 50.5078 31.2813 50.7511 31.6561 50.7865C32.3223 50.8497 32.9898 50.896 33.6819 50.951L33.6815 50.9517ZM27.5296 11.1359C27.3999 11.1359 27.3189 11.1359 27.2379 11.1359C26.2258 11.1341 25.2136 11.1327 24.2018 11.131C23.5862 11.1299 23.4105 11.2782 23.318 11.8859C23.2671 12.2208 23.2226 12.5567 23.1826 12.8408C23.7807 12.7857 24.3477 12.7289 24.9153 12.6826C25.3342 12.6486 25.669 12.461 26.0123 12.104H24.4381C24.4381 12.0756 24.4381 12.0476 24.4381 12.0192C24.6169 12.009 24.7957 11.9964 24.9749 11.9894C25.5116 11.9676 26.0501 11.9669 26.5848 11.921C27.0402 11.8817 27.3421 11.61 27.5296 11.1359ZM19.1364 12.1023C19.4246 12.4249 19.7328 12.642 20.1524 12.6749C20.6948 12.7173 21.234 12.7969 21.7746 12.8583C21.8051 12.8618 21.8381 12.8436 21.8697 12.8352C21.8136 12.4877 21.7592 12.1556 21.7066 11.8228C21.6256 11.307 21.4041 11.1145 20.8827 11.1176C19.8618 11.1236 18.8409 11.1317 17.8199 11.1408C17.7537 11.1415 17.6874 11.1566 17.5963 11.1681C17.7933 11.6286 18.1158 11.8887 18.5786 11.9224C19.1687 11.9655 19.7615 11.9662 20.353 11.9887C20.4627 11.9929 20.5718 12.0129 20.6811 12.0258C20.679 12.0511 20.6773 12.0767 20.6752 12.1019H19.1354L19.1364 12.1023ZM22.6929 14.1519C22.9667 14.214 23.2461 14.2799 23.5262 14.3398C23.7629 14.3907 24.0223 14.2774 23.9739 14.1389C23.9287 14.0102 23.7632 13.884 23.6233 13.8363C23.3523 13.7437 23.0624 13.7069 22.7735 13.6455C22.7815 13.5733 22.7854 13.5386 22.7893 13.5039C22.865 12.7998 22.9744 12.0967 23.0028 11.3905C23.0182 11.0079 22.9162 10.6148 22.8222 10.2375C22.7935 10.1221 22.615 9.96713 22.5077 9.96924C22.3983 9.97134 22.269 10.1291 22.1919 10.2473C22.1259 10.3483 22.0954 10.4893 22.0954 10.6127C22.0954 11.3017 22.0937 11.9911 22.1242 12.6791C22.1389 13.0084 22.2241 13.3345 22.2784 13.6687C21.944 13.7307 21.6428 13.7644 21.3578 13.8503C21.2372 13.8868 21.0584 14.0421 21.0664 14.1284C21.0836 14.3093 21.24 14.4082 21.4535 14.3546C21.7434 14.282 22.0369 14.2231 22.3352 14.1571C22.3885 14.3041 22.4387 14.4429 22.4892 14.5818L22.5526 14.5832C22.5954 14.4517 22.6382 14.3202 22.6929 14.1515V14.1519ZM33.9185 23.6172C33.8926 23.6691 33.8782 23.6845 33.8775 23.7007C33.8386 24.8179 33.8004 25.9347 33.766 27.0519C33.7646 27.0989 33.7902 27.1662 33.826 27.1915C34.1867 27.4443 34.552 27.6904 34.9437 27.9573C35.0169 27.2784 35.0944 26.6472 35.1512 26.0143C35.2091 25.3687 35.066 24.7646 34.7024 24.2242C34.5131 23.943 34.2758 23.7115 33.9185 23.6176V23.6172ZM30.1542 23.1866C29.8685 22.9702 29.6262 22.7651 29.3611 22.5968C29.2626 22.534 29.1 22.5193 28.9829 22.548C28.5415 22.6571 28.1053 22.7886 27.6702 22.9218C27.5608 22.9555 27.4483 23.0106 27.3631 23.0853C27.1275 23.2921 26.9059 23.5145 26.6788 23.7305C26.69 23.7406 26.7008 23.7508 26.7121 23.761C27.3372 23.5811 27.9623 23.4012 28.5723 23.2259C27.6601 24.2179 26.759 25.1976 25.858 26.1774C25.8748 26.1945 25.892 26.2121 25.9088 26.2293C27.347 25.279 28.7827 24.3252 30.1545 23.1862L30.1542 23.1866ZM29.9221 16.5167C29.9221 17.0834 29.9154 17.6017 29.9284 18.1196C29.9305 18.208 30.0171 18.3657 30.0655 18.3661C30.1654 18.3664 30.2983 18.3068 30.3575 18.2272C30.4273 18.1333 30.4483 17.9937 30.4627 17.8706C30.4795 17.723 30.4666 17.5715 30.4666 17.4218C30.5002 17.4116 30.5335 17.4014 30.5672 17.3913C30.6271 17.5182 30.6836 17.6472 30.7484 17.7714C30.7954 17.8612 30.8336 17.9888 30.9104 18.0242C31.4458 18.2714 31.9899 18.4993 32.5442 18.7388C32.594 18.5779 32.6616 18.4005 32.6978 18.2167C32.7093 18.1585 32.6532 18.0603 32.5989 18.0196C31.7953 17.4176 30.9451 16.8961 29.9224 16.5164L29.9221 16.5167ZM14.5997 17.3352C14.5997 17.5603 14.5752 17.7083 14.6061 17.8429C14.6432 18.0046 14.6986 18.1788 14.7996 18.3047C14.9219 18.4569 15.1309 18.3899 15.1351 18.2051C15.1484 17.656 15.1397 17.1065 15.1397 16.5339C14.3182 16.7902 12.9642 17.608 12.3128 18.2213C12.3689 18.3693 12.4268 18.5221 12.479 18.6603C13.1795 18.2223 13.861 17.7963 14.5994 17.3348L14.5997 17.3352ZM12.0527 19.6162C12.0173 19.3571 12.0197 19.1677 11.9591 19.0018C11.9117 18.8724 11.7789 18.6743 11.6968 18.6803C11.5699 18.6898 11.3939 18.8227 11.3434 18.9461C11.1404 19.4444 11.0994 19.969 11.2561 20.4893C11.2919 20.6075 11.436 20.7853 11.5142 20.7772C11.6337 20.765 11.8002 20.6363 11.8395 20.5202C11.9457 20.2064 11.9955 19.8732 12.0523 19.6158L12.0527 19.6162ZM33.8417 19.9325C33.8554 19.9258 33.8691 19.9192 33.8828 19.9125C33.7839 19.5485 33.7183 19.1705 33.5749 18.8248C33.4655 18.5611 33.1837 18.5804 33.0925 18.8535C32.8892 19.4637 32.9088 20.0749 33.2517 20.6384C33.4014 20.8842 33.6426 20.8512 33.7341 20.5738C33.8011 20.3705 33.8084 20.1471 33.8421 19.9325H33.8417ZM29.5585 17.6034C29.5585 17.4428 29.5585 17.2896 29.5585 17.1363C29.5585 16.6438 29.3162 16.3421 28.8314 16.2313C28.8184 16.2285 28.8023 16.2401 28.7655 16.2523C28.8114 16.5059 28.8766 16.7615 28.9005 17.0206C28.9359 17.3997 29.1203 17.5992 29.5585 17.6038V17.6034ZM11.3992 23.4412C11.3729 23.4212 11.3466 23.4008 11.3199 23.3805C11.1983 23.4927 11.0065 23.5839 10.9662 23.7203C10.7716 24.3778 10.9637 24.9932 11.2316 25.6489C11.2905 24.8719 11.3448 24.1565 11.3988 23.4412H11.3992ZM33.224 25.9859C33.6945 25.5251 33.7239 24.4143 33.224 23.909V25.9859Z" fill="url(#paint0_linear_611_756)"/>
<path d="M12.0489 48.4105C12.6498 48.482 13.1645 48.7033 13.5992 49.0964C13.5968 49.1255 13.6017 49.149 13.5925 49.1581C13.3032 49.4426 13.2851 49.7409 13.5382 50.053C13.6003 50.1294 13.6578 50.2094 13.7321 50.3079C13.9211 50.1407 14.1016 49.9811 14.2962 49.8093C14.6086 50.2038 14.7292 50.6572 14.7821 51.1512C14.5598 51.1951 14.3568 51.2354 14.1325 51.2796V51.9634C14.3393 51.9967 14.5427 52.0296 14.8203 52.0742C14.6517 52.516 14.496 52.9231 14.3253 53.3702C14.0978 53.1756 13.927 53.0294 13.7307 52.8611C13.5487 53.0609 13.3678 53.2598 13.1683 53.4789C13.3103 53.6718 13.4481 53.8587 13.629 54.1048C13.1168 54.3223 12.6291 54.5288 12.1092 54.7497C12.0436 54.4741 11.9959 54.2746 11.9476 54.0719H11.211C11.1759 54.2756 11.1429 54.4681 11.1061 54.6831C10.5189 54.5852 9.99615 54.3878 9.54914 53.9765C9.68482 53.7847 9.81419 53.6009 9.94637 53.414C9.7581 53.2079 9.5814 53.0136 9.38261 52.7958C9.21959 52.9568 9.05621 53.1177 8.83919 53.3323C8.65829 52.8881 8.48755 52.4687 8.30664 52.024C8.57484 51.9644 8.7845 51.9178 9.00502 51.8687V51.1491C8.8136 51.1183 8.61937 51.0871 8.39674 51.0513C8.41988 50.579 8.58151 50.1641 8.89494 49.7725C9.07129 49.9324 9.23677 50.0821 9.41627 50.2444C9.60629 50.0144 9.77878 49.8054 9.96635 49.5785C9.83558 49.4172 9.71147 49.264 9.57123 49.0908C9.98599 48.6549 10.5168 48.4929 11.1089 48.4207C11.1422 48.649 11.172 48.8537 11.2015 49.0547C11.8995 49.176 11.9143 49.1651 12.0489 48.4102V48.4105ZM11.0925 53.7472C11.2082 53.3783 11.3105 53.021 11.4364 52.6724C11.4644 52.5946 11.5682 52.5051 11.6485 52.4922C12.0299 52.4308 12.3111 52.2492 12.457 51.8859C12.6091 51.5072 12.5159 51.1611 12.2547 50.8746C12.1442 50.7533 12.1302 50.6572 12.1635 50.5155C12.2571 50.1179 12.3343 49.716 12.4328 49.3194C12.4724 49.1599 12.4489 49.0526 12.2908 48.9912C12.1151 48.9232 12.059 49.0536 12.0177 49.1728C11.8876 49.5505 11.7617 49.9303 11.6474 50.3128C11.6008 50.4692 11.5381 50.56 11.3631 50.6116C10.7797 50.7827 10.4765 51.3795 10.7615 51.9031C10.94 52.2309 10.9231 52.5069 10.8253 52.8225C10.7822 52.9613 10.751 53.1037 10.7149 53.2447C10.6118 53.6497 10.6258 53.6693 11.0928 53.7468L11.0925 53.7472Z" fill="url(#paint1_linear_611_756)"/>
<path d="M65.1902 40.5L57.9422 23.7H62.1422L68.4782 38.58H66.0062L72.4382 23.7H76.3022L69.0302 40.5H65.1902ZM81.2809 30.468H89.3689V33.492H81.2809V30.468ZM81.5689 37.38H90.7129V40.5H77.7049V23.7H90.4009V26.82H81.5689V37.38ZM93.8065 40.5V23.7H97.6945V37.332H106.118V40.5H93.8065ZM116.17 40.788C114.842 40.788 113.61 40.572 112.474 40.14C111.354 39.708 110.378 39.1 109.546 38.316C108.73 37.532 108.09 36.612 107.626 35.556C107.178 34.5 106.954 33.348 106.954 32.1C106.954 30.852 107.178 29.7 107.626 28.644C108.09 27.588 108.738 26.668 109.57 25.884C110.402 25.1 111.378 24.492 112.498 24.06C113.618 23.628 114.834 23.412 116.146 23.412C117.474 23.412 118.69 23.628 119.794 24.06C120.914 24.492 121.882 25.1 122.698 25.884C123.53 26.668 124.178 27.588 124.642 28.644C125.106 29.684 125.338 30.836 125.338 32.1C125.338 33.348 125.106 34.508 124.642 35.58C124.178 36.636 123.53 37.556 122.698 38.34C121.882 39.108 120.914 39.708 119.794 40.14C118.69 40.572 117.482 40.788 116.17 40.788ZM116.146 37.476C116.898 37.476 117.586 37.348 118.21 37.092C118.85 36.836 119.41 36.468 119.89 35.988C120.37 35.508 120.738 34.94 120.994 34.284C121.266 33.628 121.402 32.9 121.402 32.1C121.402 31.3 121.266 30.572 120.994 29.916C120.738 29.26 120.37 28.692 119.89 28.212C119.426 27.732 118.874 27.364 118.234 27.108C117.594 26.852 116.898 26.724 116.146 26.724C115.394 26.724 114.698 26.852 114.058 27.108C113.434 27.364 112.882 27.732 112.402 28.212C111.922 28.692 111.546 29.26 111.274 29.916C111.018 30.572 110.89 31.3 110.89 32.1C110.89 32.884 111.018 33.612 111.274 34.284C111.546 34.94 111.914 35.508 112.378 35.988C112.858 36.468 113.418 36.836 114.058 37.092C114.698 37.348 115.394 37.476 116.146 37.476ZM128.26 40.5V23.7H135.532C137.036 23.7 138.332 23.948 139.42 24.444C140.508 24.924 141.348 25.62 141.94 26.532C142.532 27.444 142.828 28.532 142.828 29.796C142.828 31.044 142.532 32.124 141.94 33.036C141.348 33.932 140.508 34.62 139.42 35.1C138.332 35.58 137.036 35.82 135.532 35.82H130.42L132.148 34.116V40.5H128.26ZM138.94 40.5L134.74 34.404H138.892L143.14 40.5H138.94ZM132.148 34.548L130.42 32.724H135.316C136.516 32.724 137.412 32.468 138.004 31.956C138.596 31.428 138.892 30.708 138.892 29.796C138.892 28.868 138.596 28.148 138.004 27.636C137.412 27.124 136.516 26.868 135.316 26.868H130.42L132.148 25.02V34.548ZM153.372 40.788C150.988 40.788 149.124 40.124 147.78 38.796C146.436 37.468 145.764 35.572 145.764 33.108V23.7H149.652V32.964C149.652 34.564 149.98 35.716 150.636 36.42C151.292 37.124 152.212 37.476 153.396 37.476C154.58 37.476 155.5 37.124 156.156 36.42C156.812 35.716 157.14 34.564 157.14 32.964V23.7H160.98V33.108C160.98 35.572 160.308 37.468 158.964 38.796C157.62 40.124 155.756 40.788 153.372 40.788ZM164.822 40.5V23.7H168.038L175.19 35.556H173.486L180.518 23.7H183.71L183.758 40.5H180.11L180.086 29.292H180.758L175.142 38.724H173.39L167.654 29.292H168.47V40.5H164.822Z" fill="#81FDC5"/>
<defs>
<linearGradient id="paint0_linear_611_756" x1="22.5321" y1="56.9998" x2="22.5321" y2="7" gradientUnits="userSpaceOnUse">
<stop stop-color="#FF0010"/>
<stop offset="1" stop-color="#00FF8D"/>
</linearGradient>
<linearGradient id="paint1_linear_611_756" x1="8.30664" y1="51.5799" x2="14.8203" y2="51.5799" gradientUnits="userSpaceOnUse">
<stop stop-color="#00FF8D"/>
<stop offset="1" stop-color="#FF0010"/>
</linearGradient>
</defs>
</svg>
