<svg width="146" height="55" viewBox="0 0 146 55" fill="none" xmlns="http://www.w3.org/2000/svg">
<path d="M57.1366 1.56545C60.332 0.732699 63.653 0.39183 66.9522 0.529763C70.391 0.66611 73.825 1.14769 77.1444 2.0609C78.2237 2.40137 79.349 2.7141 80.2764 3.38791C80.798 3.7486 81.1805 4.4672 80.8523 5.08036C80.3521 6.2306 79.3073 7.0249 78.324 7.74945C75.8825 9.39989 73.2178 10.6896 70.5269 11.8755C69.2015 12.4408 67.8777 13.0167 66.517 13.4919C66.192 13.608 65.8373 13.6655 65.5539 13.8696C68.7663 14.6592 71.9792 15.4598 75.2352 16.0635C82.5198 17.4075 89.8182 18.6802 97.1273 19.8848C99.5304 20.295 101.935 20.7084 104.347 21.0691C106.792 21.4563 109.264 21.0893 111.71 20.9125C113.452 20.7901 115.248 20.4139 116.675 19.3521C117.251 18.855 117.528 18.1198 117.891 17.471C119.302 14.5062 120.354 11.3908 121.631 8.36856C122.173 7.11924 122.623 5.74744 123.69 4.83224C124.874 3.80409 126.443 3.39703 127.949 3.10887C128.971 2.93091 130.012 2.74977 131.052 2.87978C133.158 3.0082 135.497 3.40297 136.989 5.03795C137.845 5.9143 138.172 7.145 138.316 8.32813C138.561 13.241 139.038 18.1412 139.304 23.0537C139.313 23.2641 139.352 23.4762 139.386 23.6871C141.182 23.8064 142.979 23.9736 144.759 24.2539C144.985 24.3097 145.285 24.2879 145.415 24.525C144.895 24.7465 144.325 24.7759 143.769 24.8191C142.333 24.9102 140.893 24.9895 139.453 25.0252C139.505 25.8472 139.606 26.7267 139.234 27.4961C138.785 28.3756 137.889 28.8988 137.02 29.2936C135.566 29.9083 134.026 30.3047 132.47 30.5599C132.018 30.6372 131.474 30.8806 131.391 31.3804C131.682 32.0709 132.185 32.6483 132.707 33.1763C132.304 33.1981 131.883 33.1624 131.521 32.9813C130.669 32.4224 129.959 31.6404 129.044 31.1897C128.119 31.244 127.218 31.5056 126.294 31.5643C127.879 32.3213 129.723 32.4625 131.237 33.3991C132.182 34.0059 132.543 35.3575 131.984 36.3424C131.512 37.2263 130.372 37.7126 129.424 37.3333C128.427 36.9865 127.867 35.8022 128.13 34.7974C128.287 34.1129 128.808 33.5806 129.403 33.2397C127.656 32.6856 125.891 32.139 124.089 31.8077C119.138 32.2552 114.196 32.8449 109.248 33.3404C101.802 34.1069 94.3612 34.929 86.9236 35.7574C79.0307 36.5826 71.1532 37.5458 63.2507 38.281C57.1211 38.8601 50.9622 39.1169 44.8064 39.0876C44.0292 41.1035 43.1747 43.0869 42.3788 45.0932C43.6035 45.7948 44.5231 47.0223 44.791 48.4143C45.1517 49.9859 44.6392 51.7136 43.5199 52.8654C42.0197 54.5084 39.4125 54.9852 37.4339 53.9618C36.1041 53.2527 35.0356 51.9661 34.7724 50.4611C34.5338 49.3216 34.684 48.0984 35.2262 47.0643C35.9305 45.6584 37.397 44.7155 38.9329 44.4896C39.2052 44.4246 39.7224 44.5562 39.6729 44.115C39.8727 42.3948 40.2765 40.7055 40.4624 38.9857C36.3455 38.8946 32.2302 38.6203 28.1323 38.2037C26.7387 40.5585 25.4153 42.9537 24.0419 45.3211C26.1228 46.49 27.0812 49.2645 26.1228 51.46C25.4569 53.0902 23.8097 54.2749 22.0447 54.3569C20.8184 54.4311 19.5862 53.9963 18.6523 53.2035C17.1149 51.8813 16.5715 49.5249 17.4542 47.6823C18.2421 45.7841 20.3495 44.7143 22.3483 44.8086C23.5124 42.5435 24.6801 40.2767 25.7498 37.9667C23.4213 37.6785 21.0943 37.3722 18.7903 36.9278C16.7728 36.5624 14.7618 35.9603 13.0261 34.839C11.7412 34.0059 10.5739 32.9516 9.7578 31.6448C9.22194 30.7823 8.9758 29.7898 8.65555 28.8393C8.476 28.2464 7.70034 28.3332 7.23106 28.118C6.92745 32.0598 6.69242 36.0142 6.10066 39.9267C5.92111 40.803 5.83431 41.7535 5.30796 42.5078C4.82639 42.1067 4.91953 41.3976 4.84977 40.8371C4.7059 36.7158 4.78953 32.5881 4.82203 28.4648C4.80499 28.1302 4.88386 27.7803 4.78794 27.4584C3.22869 26.7275 1.64487 26.0264 0.186689 25.1021C-0.0531042 24.9752 -0.0657875 24.5353 0.171231 24.4021C1.64963 23.5226 3.26159 22.905 4.83154 22.2158C4.93222 19.1392 5.06539 16.0631 5.31152 12.9941C5.38128 11.6996 5.52833 10.4098 5.73879 9.13274C5.79626 8.76096 5.96471 8.42207 6.15536 8.10142C6.48512 8.32139 6.53467 8.7348 6.59491 9.0939C6.75425 10.1732 6.79785 11.2659 6.86602 12.3532C7.03645 15.4186 7.15258 18.4876 7.2049 21.5578C7.60442 21.4789 8.00672 21.4139 8.40941 21.3426C8.69875 20.9324 8.9326 20.3394 9.50573 20.2851C15.8751 19.3005 22.3206 18.9799 28.7395 18.486C29.0261 18.4428 29.3915 18.4626 29.5726 18.1903C29.6872 18.006 29.6408 17.6176 29.3697 17.6299C27.1727 17.551 24.9123 17.6192 22.8022 16.8915C22.1458 16.6469 21.4474 16.3215 21.0665 15.7024C20.7895 15.1356 21.302 14.6247 21.7538 14.3631C23.2663 13.4451 25.0098 13.0301 26.688 12.5268C30.3031 11.4415 34.1089 11.4011 37.8184 10.8609C38.7133 10.7618 39.4549 10.2136 40.2381 9.8236C44.1937 7.75975 48.097 5.60158 52.0034 3.44776C53.6043 2.55437 55.3724 2.02959 57.1358 1.56505M37.6713 11.6972C35.3721 13.4792 33.1378 15.3465 30.7708 17.0401C30.4411 17.3283 29.9206 17.5914 29.9424 18.0944C29.944 18.3469 30.2488 18.3996 30.4347 18.4662C32.0542 18.903 33.621 19.5035 35.1818 20.106C36.3618 17.57 37.5195 15.023 38.8203 12.5458C38.9567 12.2454 39.2246 11.8783 38.9567 11.5719C38.613 11.1431 38.0169 11.417 37.6717 11.6972M39.5155 13.5224C38.4149 15.8681 37.3447 18.2339 36.2579 20.5871C37.3495 21.3366 38.667 21.7049 39.969 21.8785C39.8576 19.0342 39.8326 16.1871 39.7042 13.3445C39.6562 13.3892 39.5635 13.4776 39.5151 13.5224M40.8251 14.0195C40.8544 16.4563 40.9226 18.8919 40.9242 21.3303C40.946 21.5673 40.8917 21.8289 41.0046 22.0501C42.4212 22.2915 43.8691 22.2946 45.3011 22.3878C45.682 21.3442 45.9515 20.2653 46.2904 19.209C46.7613 17.6513 47.2951 16.1138 47.7272 14.5454C47.8401 14.2822 47.5801 13.9572 47.2967 14.0084C45.1402 13.9897 42.9816 14.0206 40.8251 14.0191M51.4477 14.3861C50.5496 16.8388 49.6578 19.2974 48.8992 21.796C48.701 22.1662 49.1081 22.4912 49.458 22.4587C51.4196 22.4849 53.3811 22.4726 55.3431 22.4679C55.611 22.4445 55.9329 22.5019 56.1405 22.2836C56.6174 21.8594 56.913 21.2788 57.2226 20.729C58.441 18.4793 59.7557 16.2807 60.9368 14.0111C58.1421 13.9818 55.3474 14.0175 52.5532 13.9877C52.1489 13.9846 51.5516 13.8375 51.4477 14.3857M61.9201 14.9243C60.6427 17.2482 59.2384 19.5027 57.9998 21.8499C57.8992 22.0327 57.8155 22.4306 58.1405 22.4413C59.4766 22.4956 60.8191 22.494 62.1568 22.4738C62.372 22.5126 62.4774 22.2665 62.5238 22.1008C62.6788 21.3374 62.6122 20.5558 62.609 19.7829C62.5888 17.8709 62.5563 15.9573 62.4774 14.048C62.1909 14.2664 62.089 14.6223 61.9201 14.9243ZM63.4437 14.065C63.456 16.5359 63.5349 19.0088 63.6328 21.4797C63.5939 21.9054 63.8571 22.3795 64.3157 22.4227C65.6673 22.4893 67.0327 22.3577 68.3442 22.0109C70.2562 21.4952 72.0212 20.3497 73.1655 18.7207C73.4873 18.3057 73.5293 17.7207 73.1932 17.3009C72.8107 16.595 71.9887 16.3984 71.2764 16.1986C68.6597 15.5082 66.0664 14.7293 63.4437 14.065Z" fill="url(#paint0_linear_696_806)"/>
<defs>
<linearGradient id="paint0_linear_696_806" x1="72.7075" y1="0.5" x2="72.7075" y2="54.4995" gradientUnits="userSpaceOnUse">
<stop stop-color="#FADF7B"/>
<stop offset="1" stop-color="#FFCD43"/>
</linearGradient>
</defs>
</svg>
