<svg width="133" height="20" viewBox="0 0 133 20" fill="none" xmlns="http://www.w3.org/2000/svg">
<g clip-path="url(#clip0_536_1023)">
<path d="M18.9909 14.0433V14.0386C18.9841 13.9991 18.9637 13.9014 18.9319 13.8526L18.7957 13.6131H18.7594L18.7458 13.5991C18.6005 13.4457 18.4393 13.3317 18.3008 13.241C18.0648 13.0922 17.8264 12.9643 17.5903 12.8457C17.7379 12.2086 17.8173 11.5482 17.8173 10.8646C17.8173 6.91159 15.2091 3.57246 11.6633 2.55398V2.54003C11.6928 2.29355 11.7223 2.04009 11.6974 1.76338C11.6701 1.38203 11.4817 0.889069 11.0345 0.654214C10.9256 0.596082 10.8166 0.554226 10.7076 0.533298C10.669 0.523997 10.6259 0.519347 10.5805 0.514696L9.72699 0.496094C9.4614 0.496094 9.22305 0.500744 9.00059 0.512371C8.68279 0.530973 8.35364 0.549576 7.99951 0.644913L7.96319 0.656539C7.8792 0.682117 7.7657 0.719322 7.62042 0.830936C7.58183 0.863491 7.516 0.926274 7.4933 0.970454L7.35029 1.21694L7.37072 1.24949V1.25879C7.30489 1.46574 7.28673 1.66339 7.27765 1.83081C7.2663 2.06102 7.27084 2.28657 7.27765 2.50748C3.65017 3.4748 0.964746 6.85346 0.964746 10.8646C0.964746 11.611 1.06236 12.3365 1.23715 13.0294C1.07825 13.1015 0.914806 13.1806 0.751365 13.2782C0.342763 13.5201 0.0726311 13.8968 0.0113408 14.313C-0.0227094 14.5804 0.0204208 14.8246 0.133921 15.0431L0.360923 15.4617C0.535714 15.771 0.696885 16.043 0.855785 16.2942C1.03739 16.5778 1.21899 16.8522 1.45734 17.1196C1.51863 17.1847 1.59127 17.2615 1.68888 17.3359C1.73428 17.3684 1.80238 17.4173 1.87956 17.4475C1.90226 17.4568 1.93177 17.4684 1.98171 17.4824C2.01576 17.4917 2.06797 17.4987 2.10883 17.4987L2.23368 17.4894C2.45614 17.4591 2.64228 17.3801 2.81481 17.2964C3.02592 17.1871 3.22341 17.0662 3.41409 16.9406C4.94181 18.5171 7.05519 19.4984 9.39103 19.4984C11.7269 19.4984 13.9742 18.4567 15.511 16.7894C15.5291 16.8034 15.5473 16.815 15.5677 16.8313C15.763 16.9755 15.965 17.1243 16.2147 17.2382C16.6346 17.4382 17.1409 17.4173 17.4836 17.1824C17.5858 17.115 17.6743 17.0359 17.7492 16.9476C17.7742 16.9173 17.8014 16.8825 17.8241 16.8429L18.1465 16.2802C18.3167 15.9756 18.462 15.6966 18.5959 15.4198C18.7321 15.1269 18.8751 14.8246 18.9637 14.4665L18.9705 14.4293C18.9886 14.3409 19.0136 14.2223 18.9909 14.0433ZM17.5926 10.8669C17.5926 11.5133 17.5177 12.1412 17.3815 12.7458C17.2793 12.6969 17.1794 12.6504 17.0773 12.6039C17.1976 12.0435 17.2657 11.4645 17.2657 10.8669C17.2657 7.19527 14.8708 4.10263 11.5952 3.126C11.6088 3.01439 11.6247 2.9051 11.6383 2.79116C15.0706 3.79569 17.5926 7.0325 17.5926 10.8669ZM1.19175 10.8669C1.19175 6.97902 3.7841 3.70268 7.289 2.74931C7.29581 2.86325 7.30262 2.97719 7.31397 3.0888C3.97251 4.02124 1.51863 7.14877 1.51863 10.8646C1.51863 11.532 1.60035 12.1807 1.75017 12.8016C1.69796 12.8248 1.64575 12.8457 1.59354 12.869L1.45734 12.9295C1.45734 12.9295 1.45053 12.9318 1.44599 12.9341C1.28028 12.2714 1.18948 11.5785 1.18948 10.8646L1.19175 10.8669ZM9.3933 19.2682C7.13691 19.2682 5.0939 18.3288 3.60931 16.8127C3.70011 16.7499 3.79091 16.6871 3.87944 16.622C5.30047 18.0498 7.24587 18.9334 9.3933 18.9334C11.5407 18.9334 13.6337 17.98 15.0661 16.4546C15.1523 16.522 15.2386 16.5871 15.3271 16.6546C13.8312 18.2614 11.7269 19.2682 9.3933 19.2682ZM10.4193 17.4498L9.3933 16.8964L8.36726 17.4498L8.56248 16.2802L7.73165 15.4524L8.87801 15.2827L9.39103 14.2177L9.90405 15.2827L11.0504 15.4524L10.2196 16.2802L10.4148 17.4498H10.4193ZM18.807 14.3944L18.8002 14.4269C18.7162 14.7641 18.5778 15.0594 18.4416 15.3501C18.3145 15.6152 18.1692 15.8896 18.0012 16.1918L17.6811 16.7522C17.663 16.7825 17.6403 16.8104 17.6221 16.8336C17.5585 16.9104 17.4814 16.9778 17.3928 17.0359C17.0977 17.2406 16.6596 17.2568 16.2873 17.0801C16.0512 16.9755 15.8583 16.8313 15.6608 16.6848C15.6131 16.6476 15.5632 16.6127 15.5178 16.5802C14.7006 15.9616 13.9538 15.3664 13.2841 14.8292L10.8325 12.8457L10.7825 12.8783C10.4193 13.1062 10.0039 13.2271 9.57717 13.2271C9.0755 13.2271 8.59653 13.0643 8.19246 12.7551L8.13571 12.7132L8.0835 12.762C7.71576 13.1015 7.25722 13.5224 6.7215 14.0084L5.5933 15.0199L5.46845 15.1292C5.0939 15.4547 4.708 15.7919 4.27896 16.1151L4.10417 16.2453C3.68422 16.5592 3.24838 16.8848 2.74444 17.1452C2.56283 17.2336 2.40393 17.2964 2.21779 17.3196L2.13834 17.3289H2.11337C2.0884 17.3289 2.04981 17.3219 2.02711 17.3173C1.99079 17.308 1.96809 17.301 1.94766 17.2917C1.8841 17.2661 1.82962 17.2266 1.7933 17.201C1.70704 17.1359 1.64348 17.0685 1.58446 17.008C1.35746 16.7522 1.17813 16.4825 1.00107 16.2058C0.844435 15.957 0.683264 15.6873 0.513014 15.3826L0.286012 14.9664C0.188402 14.7827 0.154352 14.5734 0.181592 14.3456C0.236072 13.9828 0.474423 13.6526 0.839895 13.4364C1.07144 13.2992 1.30298 13.1969 1.52771 13.0969L1.66164 13.0364C2.62639 12.6179 3.52305 12.2551 4.31301 11.9366L7.25041 10.7693V10.7134C7.29581 9.9368 7.70895 9.22991 8.35818 8.82298L8.40812 8.79043L8.39677 8.72997C8.30143 8.23468 8.18112 7.60685 8.04718 6.88368L7.78159 5.39317L7.743 5.16529C7.66809 4.72116 7.5841 4.21657 7.53643 3.6957L7.51827 3.48643C7.4706 2.96091 7.42066 2.41911 7.44563 1.84942C7.45471 1.69362 7.47287 1.5076 7.52962 1.31925L7.55686 1.23786L7.54778 1.22391L7.63631 1.07277C7.64539 1.05416 7.67944 1.01696 7.72484 0.97743C7.84288 0.886744 7.93368 0.85884 8.01313 0.833262L8.04491 0.823961C8.37861 0.733274 8.69868 0.714672 9.0074 0.698395C9.22759 0.686768 9.4614 0.682117 9.72472 0.682117L10.5714 0.70072C10.6078 0.70072 10.6418 0.707696 10.6713 0.714672C10.7644 0.733274 10.8597 0.768153 10.9528 0.81931C11.3387 1.02161 11.5021 1.44947 11.5248 1.78663C11.5475 2.04707 11.5203 2.29355 11.4931 2.53073L11.4726 2.71908C11.341 3.77011 11.1912 4.73046 11.0618 5.57919L10.5646 8.69974L10.6214 8.72764C11.4068 9.13457 11.8949 9.94842 11.8949 10.8506V10.9134L11.9539 10.932C12.4101 11.0832 12.9754 11.2715 13.6201 11.4901L15.0207 11.9761L15.2431 12.0575C15.6767 12.2156 16.1284 12.376 16.587 12.5807L16.7822 12.669C17.2521 12.8806 17.7356 13.0992 18.2078 13.3968C18.3372 13.4829 18.487 13.5875 18.6209 13.7294L18.6822 13.7968H18.6958L18.7798 13.9456C18.7912 13.9642 18.807 14.02 18.8184 14.0758C18.8366 14.2223 18.8184 14.3177 18.8002 14.4014L18.807 14.3944Z" fill="url(#paint0_linear_536_1023)"/>
<path d="M9.57131 10.2344C9.24442 10.2344 8.97656 10.5088 8.97656 10.8436C8.97656 11.1784 9.24442 11.4528 9.57131 11.4528C9.89819 11.4528 10.166 11.1784 10.166 10.8436C10.166 10.5088 9.90046 10.2344 9.57131 10.2344ZM9.57131 11.2691C9.34203 11.2691 9.15589 11.0785 9.15589 10.8436C9.15589 10.6087 9.34203 10.4181 9.57131 10.4181C9.80058 10.4181 9.98445 10.6087 9.98445 10.8436C9.98445 11.0785 9.79831 11.2691 9.57131 11.2691Z" fill="url(#paint1_linear_536_1023)"/>
<path d="M18.6092 14.023L18.6024 14.0091V14.0021C18.582 13.9742 18.591 13.9905 18.5865 13.9835L18.5683 13.9579C18.5434 13.9207 18.5161 13.8905 18.4866 13.8602C18.3709 13.737 18.2415 13.644 18.1121 13.5603C17.5877 13.2278 17.0384 12.9952 16.514 12.7581C15.9828 12.5209 15.4584 12.3395 14.9636 12.1605C14.4664 11.9884 13.9965 11.8256 13.563 11.6745C12.8207 11.4233 12.1828 11.2117 11.697 11.0513C11.7038 10.9839 11.7061 10.9164 11.7061 10.8467C11.7061 9.92584 11.1454 9.13524 10.3554 8.81667C10.4145 8.4516 10.5893 7.36104 10.8276 5.86587C10.9683 4.9404 11.1386 3.86147 11.2861 2.69649C11.3157 2.40118 11.3679 2.11052 11.3384 1.79428C11.3179 1.48734 11.1658 1.14319 10.8639 0.9874C10.7913 0.94787 10.7141 0.917641 10.6324 0.901364C10.612 0.896713 10.5893 0.892063 10.5643 0.892063H10.5075L10.394 0.885087C10.2419 0.882761 10.0899 0.878111 9.93776 0.875786C9.63358 0.87346 9.32713 0.875786 9.01841 0.889737C8.70969 0.90834 8.40323 0.926942 8.09224 1.01065C8.01279 1.03623 7.93788 1.05716 7.84935 1.12459C7.82438 1.14552 7.79714 1.17342 7.7926 1.18505L7.78352 1.19668L7.77898 1.20365C7.76309 1.23156 7.77217 1.21528 7.76763 1.22458L7.75401 1.25481C7.73585 1.29434 7.72223 1.33619 7.70861 1.37572C7.66094 1.5385 7.64278 1.69894 7.6337 1.85706C7.60419 2.48954 7.67229 3.09179 7.7245 3.67777C7.78125 4.26839 7.88113 4.82646 7.96739 5.35663C8.06046 5.88447 8.15126 6.38674 8.23298 6.84715C8.38507 7.67263 8.519 8.37254 8.62116 8.89573C7.92199 9.25383 7.43848 9.99327 7.43848 10.849C7.43848 10.8676 7.43848 10.8862 7.44075 10.9025C7.11614 11.0304 6.08782 11.4396 4.67134 12C3.80873 12.3488 2.80312 12.7511 1.73394 13.2138C1.46608 13.3347 1.19595 13.4463 0.930355 13.6045C0.669304 13.7579 0.419603 14.0207 0.367392 14.3648C0.346962 14.5346 0.362852 14.709 0.446843 14.8671C0.521753 15.0043 0.596664 15.1415 0.673844 15.281C0.828205 15.5554 0.987106 15.8274 1.15736 16.0949C1.32761 16.3623 1.5024 16.625 1.71805 16.8669C1.77253 16.9273 1.83155 16.9854 1.90192 17.0389C1.93824 17.0645 1.97683 17.0901 2.0245 17.111C2.03585 17.1157 2.05174 17.1203 2.06536 17.1226C2.08125 17.1273 2.10849 17.1296 2.1153 17.1296H2.12892C2.14935 17.1296 2.14481 17.1296 2.15389 17.1296L2.18567 17.125C2.35819 17.1017 2.50801 17.0389 2.65102 16.9692C3.21172 16.6785 3.68842 16.3065 4.16058 15.9553C4.63274 15.6019 5.05951 15.2229 5.46357 14.8717C5.86309 14.5137 6.24218 14.1742 6.59177 13.8626C7.21829 13.2952 7.73812 12.8139 8.13083 12.4511C8.50992 12.8115 9.01614 13.0324 9.57456 13.0324C10.0467 13.0324 10.4826 12.872 10.8367 12.6046C11.1023 12.8185 11.9581 13.5138 13.1407 14.4718C13.8626 15.0485 14.7002 15.7251 15.6219 16.4204C15.8602 16.5878 16.0827 16.7785 16.3664 16.9064C16.6388 17.0366 17.0066 17.0668 17.2858 16.8738C17.3539 16.8273 17.4175 16.7738 17.4719 16.7087C17.4856 16.6925 17.4992 16.6739 17.5128 16.6529L17.5423 16.6041L17.6013 16.5041C17.6785 16.3692 17.7534 16.2344 17.8306 16.0995C17.9804 15.8274 18.128 15.5531 18.2642 15.2694C18.3981 14.9857 18.532 14.702 18.6115 14.3811C18.6274 14.2974 18.6478 14.2207 18.6342 14.109C18.6274 14.0765 18.6183 14.0393 18.6115 14.0277L18.6092 14.023ZM11.5268 10.8443C11.5268 10.8932 11.5222 10.942 11.52 10.9908C11.4995 10.9838 11.4791 10.9769 11.4609 10.9722C11.1931 10.8862 10.9865 10.8188 10.848 10.7746C10.8117 10.084 10.2578 9.53286 9.57456 9.53286C9.41793 9.53286 9.27265 9.56542 9.13418 9.6189C9.1024 9.47706 9.057 9.26546 8.99798 8.99572C8.99344 8.97712 8.9889 8.95852 8.98663 8.93991C9.17277 8.87946 9.37026 8.8469 9.57683 8.8469C10.6528 8.8469 11.529 9.74447 11.529 10.8467L11.5268 10.8443ZM10.4939 10.8443C10.4939 11.3629 10.0808 11.7861 9.57456 11.7861C9.06835 11.7861 8.65521 11.3629 8.65521 10.8443C8.65521 10.3258 9.06835 9.90259 9.57456 9.90259C10.0808 9.90259 10.4939 10.3258 10.4939 10.8443ZM8.53263 6.78204C8.44182 6.32396 8.34421 5.82634 8.24206 5.30083C8.14672 4.77531 8.03776 4.21956 7.97193 3.64521C7.90837 3.06621 7.83346 2.46164 7.85162 1.86404C7.85843 1.71522 7.87205 1.5664 7.91064 1.43153C7.91972 1.39898 7.93107 1.3641 7.94469 1.33387L7.95377 1.31062L7.96058 1.30131C7.9742 1.27806 7.97874 1.28271 7.98101 1.28039C8.01279 1.25481 8.08543 1.22225 8.15126 1.20365C8.42593 1.12227 8.73239 1.09669 9.03203 1.07344C9.33394 1.05251 9.63812 1.04321 9.94003 1.04088C10.0921 1.04088 10.2419 1.04088 10.3918 1.04088H10.5053L10.562 1.04321C10.5756 1.04321 10.5893 1.04553 10.6074 1.04786C10.6732 1.05948 10.7391 1.08274 10.7981 1.11529C11.0478 1.23853 11.184 1.51989 11.2112 1.8059C11.243 2.08959 11.1976 2.3942 11.1749 2.68022C11.0501 3.84286 10.898 4.92645 10.7731 5.85425C10.562 7.35174 10.4054 8.44695 10.3532 8.81202C10.1126 8.71436 9.84923 8.65855 9.57456 8.65855C9.35664 8.65855 9.14553 8.69343 8.94577 8.75622C8.83681 8.24465 8.6938 7.57031 8.53489 6.78204H8.53263ZM6.38746 13.6277C6.04469 13.9463 5.67468 14.2904 5.28197 14.6555C4.88472 15.0159 4.47157 15.3973 4.01303 15.753C3.55449 16.1065 3.08006 16.4902 2.55795 16.7715C2.42856 16.8389 2.29236 16.8948 2.15843 16.9157C2.08352 16.9506 1.95867 16.8296 1.85879 16.7273C1.65449 16.5064 1.47743 16.2483 1.30491 15.9902C1.13239 15.7298 0.968946 15.4624 0.812315 15.1926C0.735134 15.0578 0.657954 14.9229 0.580773 14.788C0.514943 14.6718 0.494513 14.5183 0.510403 14.3811C0.546723 14.0974 0.753294 13.8626 0.998456 13.7114C1.24589 13.558 1.52056 13.437 1.78161 13.3161C2.83717 12.8348 3.83824 12.4139 4.69404 12.0488C6.09917 11.4629 7.12068 11.035 7.44302 10.9001C7.45437 11.3861 7.62235 11.8326 7.89702 12.1907C7.51339 12.5604 7.00264 13.0487 6.38746 13.6277ZM8.02868 12.0628C7.77444 11.7256 7.62008 11.3024 7.62008 10.842C7.62008 10.077 8.0423 9.41195 8.65975 9.07478C8.72785 9.41893 8.77779 9.66541 8.80503 9.79795C8.4963 10.0375 8.292 10.4142 8.292 10.8397C8.292 11.1164 8.37599 11.3722 8.519 11.5838C8.41685 11.6838 8.25114 11.8442 8.02868 12.0605V12.0628ZM9.57229 12.8418C9.06835 12.8418 8.60981 12.6441 8.26249 12.3209C8.4895 12.1093 8.65748 11.9488 8.76417 11.8512C8.98436 12.0372 9.26357 12.1535 9.57229 12.1535C10.1761 12.1535 10.6823 11.721 10.8163 11.1443C10.9502 11.1838 11.1295 11.2396 11.3565 11.3071C11.3906 11.3164 11.4269 11.328 11.4632 11.3396C11.2476 12.2023 10.4826 12.8441 9.57456 12.8441L9.57229 12.8418ZM18.4185 14.3323C18.3527 14.6183 18.2278 14.9043 18.1007 15.1833C17.9713 15.4647 17.8329 15.7391 17.6876 16.0111C17.6149 16.146 17.54 16.2809 17.4674 16.4157L17.4106 16.5157L17.3834 16.5646C17.3766 16.5762 17.3675 16.5878 17.3562 16.6018C17.313 16.6552 17.2608 16.7018 17.2063 16.7413C16.9793 16.9041 16.6729 16.8901 16.4186 16.7762C16.1599 16.6669 15.9238 16.4785 15.69 16.3181C14.7593 15.6414 13.908 14.981 13.1771 14.4183C11.9785 13.4835 11.1091 12.8046 10.8412 12.5953C11.2271 12.3023 11.5132 11.8791 11.638 11.3885C12.1215 11.5373 12.7458 11.7326 13.4722 11.9628C13.908 12.1046 14.3779 12.2581 14.8773 12.4209C15.3722 12.5906 15.8988 12.7627 16.4209 12.9836C16.9453 13.2092 17.4969 13.4347 18.0008 13.7393C18.1234 13.8161 18.2437 13.9021 18.3413 14.0021C18.3663 14.0277 18.389 14.0509 18.4072 14.0788L18.4231 14.0997L18.4276 14.109C18.4412 14.1323 18.4344 14.1346 18.4367 14.1393C18.4435 14.1811 18.4344 14.2602 18.4208 14.3276L18.4185 14.3323Z" fill="url(#paint2_linear_536_1023)"/>
</g>
<path d="M34.495 8.725H39.535V10.675H34.495V8.725ZM34.675 14.5H32.245V4H40.18V5.95H34.675V14.5ZM41.8251 14.5V4H46.3701C47.3101 4 48.1201 4.155 48.8001 4.465C49.4801 4.765 50.0051 5.2 50.3751 5.77C50.7451 6.34 50.9301 7.02 50.9301 7.81C50.9301 8.59 50.7451 9.265 50.3751 9.835C50.0051 10.395 49.4801 10.825 48.8001 11.125C48.1201 11.425 47.3101 11.575 46.3701 11.575H43.1751L44.2551 10.51V14.5H41.8251ZM48.5001 14.5L45.8751 10.69H48.4701L51.1251 14.5H48.5001ZM44.2551 10.78L43.1751 9.64H46.2351C46.9851 9.64 47.5451 9.48 47.9151 9.16C48.2851 8.83 48.4701 8.38 48.4701 7.81C48.4701 7.23 48.2851 6.78 47.9151 6.46C47.5451 6.14 46.9851 5.98 46.2351 5.98H43.1751L44.2551 4.825V10.78ZM55.0904 8.23H60.1454V10.12H55.0904V8.23ZM55.2704 12.55H60.9854V14.5H52.8554V4H60.7904V5.95H55.2704V12.55ZM65.1538 8.23H70.2088V10.12H65.1538V8.23ZM65.3338 12.55H71.0488V14.5H62.9188V4H70.8538V5.95H65.3338V12.55ZM79.4804 8.725H84.5204V10.675H79.4804V8.725ZM79.6604 14.5H77.2304V4H85.1654V5.95H79.6604V14.5ZM86.8104 14.5V4H89.2404V12.52H94.5054V14.5H86.8104ZM95.8632 14.5V4H98.2932V14.5H95.8632ZM105.855 14.68C105.025 14.68 104.26 14.55 103.56 14.29C102.87 14.02 102.265 13.64 101.745 13.15C101.235 12.66 100.835 12.085 100.545 11.425C100.265 10.765 100.125 10.04 100.125 9.25C100.125 8.46 100.265 7.735 100.545 7.075C100.835 6.415 101.24 5.84 101.76 5.35C102.28 4.86 102.89 4.485 103.59 4.225C104.29 3.955 105.06 3.82 105.9 3.82C106.83 3.82 107.665 3.975 108.405 4.285C109.155 4.595 109.785 5.045 110.295 5.635L108.735 7.075C108.355 6.675 107.94 6.38 107.49 6.19C107.04 5.99 106.55 5.89 106.02 5.89C105.51 5.89 105.045 5.97 104.625 6.13C104.205 6.29 103.84 6.52 103.53 6.82C103.23 7.12 102.995 7.475 102.825 7.885C102.665 8.295 102.585 8.75 102.585 9.25C102.585 9.74 102.665 10.19 102.825 10.6C102.995 11.01 103.23 11.37 103.53 11.68C103.84 11.98 104.2 12.21 104.61 12.37C105.03 12.53 105.49 12.61 105.99 12.61C106.47 12.61 106.935 12.535 107.385 12.385C107.845 12.225 108.29 11.96 108.72 11.59L110.1 13.345C109.53 13.775 108.865 14.105 108.105 14.335C107.355 14.565 106.605 14.68 105.855 14.68ZM107.88 13.03V9.085H110.1V13.345L107.88 13.03ZM119.557 4H121.987V14.5H119.557V4ZM114.787 14.5H112.357V4H114.787V14.5ZM119.737 10.195H114.607V8.14H119.737V10.195ZM126.647 14.5V5.98H123.287V4H132.437V5.98H129.077V14.5H126.647Z" fill="#FFC4C4"/>
<defs>
<linearGradient id="paint0_linear_536_1023" x1="9.49998" y1="0.496094" x2="9.49998" y2="19.4984" gradientUnits="userSpaceOnUse">
<stop stop-color="#FFCD43"/>
<stop offset="1" stop-color="#DD010F"/>
</linearGradient>
<linearGradient id="paint1_linear_536_1023" x1="9.57131" y1="10.2344" x2="9.57131" y2="11.4528" gradientUnits="userSpaceOnUse">
<stop stop-color="#FFCD43"/>
<stop offset="1" stop-color="#DD010F"/>
</linearGradient>
<linearGradient id="paint2_linear_536_1023" x1="9.49901" y1="0.875" x2="9.49901" y2="17.1296" gradientUnits="userSpaceOnUse">
<stop stop-color="#FFCD43"/>
<stop offset="1" stop-color="#DD010F"/>
</linearGradient>
<clipPath id="clip0_536_1023">
<rect width="19" height="19" fill="white" transform="translate(0 0.5)"/>
</clipPath>
</defs>
</svg>
