<svg width="161" height="20" viewBox="0 0 161 20" fill="none" xmlns="http://www.w3.org/2000/svg">
<path d="M13.1293 10.3772C13.1382 10.6052 13.2199 10.8383 13.066 11.0451C12.916 11.2466 12.6914 11.2921 12.4545 11.3232C12.4472 11.3476 12.4398 11.3732 12.4318 11.3985C12.4053 11.4819 12.3436 11.5195 12.2606 11.5235C12.1774 11.5275 12.1146 11.4862 12.0986 11.4068C12.0847 11.3375 12.0472 11.3319 11.9907 11.3258C11.6675 11.2913 11.3449 11.2513 11.0215 11.2181C10.9879 11.2146 10.9482 11.2385 10.9164 11.2579C10.8462 11.3009 10.7848 11.3716 10.7098 11.3901C10.5716 11.4244 10.4737 11.5099 10.3656 11.59C10.0402 11.8313 9.70923 12.0653 9.38096 12.3029C9.05282 12.5404 8.76159 12.8146 8.53777 13.1552C8.51312 13.1926 8.49141 13.2323 8.47089 13.2722C8.42 13.3708 8.40441 13.4716 8.47849 13.5648C8.55589 13.6621 8.66634 13.685 8.77891 13.6565C8.89895 13.6261 9.01792 13.5842 9.1305 13.5327C9.67766 13.282 10.1923 12.9786 10.6453 12.5778C10.7307 12.5022 10.8201 12.4312 10.8945 12.369C10.8604 12.4416 10.8255 12.5487 10.7653 12.639C10.54 12.9763 10.2368 13.2377 9.89282 13.4426C9.46782 13.6958 9.02765 13.9234 8.59413 14.1621C8.57321 14.1736 8.55256 14.1855 8.51885 14.2044C9.1626 14.4624 9.58093 14.9423 9.90774 15.5185C9.6686 15.452 9.5002 15.2824 9.31088 15.1221C9.26572 15.2056 9.21949 15.2851 9.17899 15.3671C9.10092 15.5256 9.03471 15.6904 8.94784 15.8436C8.85738 16.0031 8.84379 16.1624 8.87097 16.3411C8.96516 16.9596 9.05322 17.5792 9.13343 18.1998C9.17473 18.519 9.19471 18.841 9.22442 19.1617C9.22975 19.2189 9.23561 19.276 9.26359 19.3353C9.32487 19.1348 9.38789 18.9347 9.44704 18.7336C9.73348 17.7608 10.0183 16.7877 10.3049 15.815C10.5151 15.1013 10.7441 14.3924 10.9316 13.6727C11.0295 13.297 11.0575 12.9027 11.1134 12.5162C11.1232 12.4489 11.1148 12.379 11.1148 12.3017C11.2032 12.4072 11.2885 12.5174 11.3827 12.6192C11.5212 12.7691 11.6534 12.929 11.8121 13.0548C11.9476 13.1621 12.11 13.2434 12.2718 13.3075C12.6674 13.4642 13.0696 13.6042 13.4691 13.7511C13.4883 13.7581 13.5068 13.7667 13.5368 13.7791C13.4882 13.9355 13.4402 14.0895 13.3924 14.2437C13.3811 14.2801 13.3706 14.3167 13.3595 14.3531C13.2697 14.6473 13.2705 14.6486 13.5906 14.7149C13.673 14.4374 13.7557 14.1584 13.8408 13.8713C13.9488 13.9139 14.044 13.9515 14.1501 13.9933C14.084 14.208 14.0175 14.4177 13.9553 14.6288C13.8888 14.8544 13.8495 14.799 14.0783 14.8925C14.1129 14.9066 14.1489 14.917 14.1966 14.9334C14.2821 14.6524 14.3664 14.3757 14.4545 14.0865C14.5583 14.1228 14.6547 14.1567 14.7552 14.192C14.6686 14.4754 14.5852 14.7487 14.4991 15.0301C14.5966 15.0696 14.6882 15.1065 14.7925 15.1487C14.8757 14.8678 14.9577 14.5915 15.0447 14.2983C15.1474 14.3335 15.2461 14.3672 15.3552 14.4047C15.2905 14.6177 15.2285 14.8217 15.1664 15.0257C15.1523 15.0721 15.1414 15.12 15.1228 15.1643C15.094 15.2326 15.1172 15.2647 15.185 15.2836C15.2576 15.3038 15.3277 15.3329 15.4121 15.3629C15.4929 15.0773 15.5715 14.7998 15.6535 14.5094C15.8074 14.5635 15.9537 14.6124 16.0973 14.6681C16.1192 14.6765 16.1361 14.7146 16.1429 14.7419C16.3412 15.5297 16.5368 16.3183 16.7368 17.1057C16.7568 17.1843 16.7392 17.2221 16.6692 17.2604C15.6001 17.8449 14.4854 18.324 13.327 18.7003C12.4569 18.9829 11.5676 19.1864 10.6622 19.3191C9.48914 19.491 8.31195 19.5564 7.12944 19.4447C5.99435 19.3376 4.86859 19.1649 3.77826 18.8245C2.5262 18.4335 1.32397 17.9174 0.166896 17.2983C-0.0225517 17.1971 -0.0224185 17.1963 0.0298062 16.9852C0.211793 16.2495 0.395379 15.5142 0.574302 14.7779C0.593753 14.6977 0.630257 14.6536 0.707795 14.6308C0.826366 14.596 0.942939 14.554 1.06977 14.5119C1.15304 14.7944 1.23364 15.0683 1.31757 15.3529C1.42096 15.3168 1.51421 15.2843 1.62 15.2473C1.53779 14.9634 1.45746 14.6861 1.37419 14.3987C1.48117 14.3628 1.57763 14.3306 1.68261 14.2954C1.76721 14.5808 1.84941 14.858 1.93095 15.1327C1.944 15.1341 1.95133 15.137 1.95719 15.1351C2.2351 15.0472 2.23364 15.0476 2.14757 14.7707C2.09215 14.5923 2.04179 14.4123 1.98983 14.2328C1.9861 14.22 1.98783 14.2056 1.98663 14.1837C2.07696 14.152 2.16716 14.1206 2.27147 14.0839C2.35754 14.3691 2.44267 14.6509 2.53006 14.9405C2.63092 14.906 2.72098 14.875 2.82303 14.8401C2.74043 14.5539 2.65956 14.2735 2.57723 13.9877C2.68301 13.9481 2.77587 13.9135 2.88058 13.8743C2.96531 14.1612 3.04805 14.4416 3.13291 14.729C3.21218 14.7002 3.28186 14.6716 3.35354 14.65C3.42295 14.6291 3.43361 14.592 3.41282 14.5255C3.34061 14.2942 3.27333 14.0614 3.20486 13.8289C3.19913 13.8096 3.19779 13.789 3.1946 13.7704C3.59521 13.6269 3.98796 13.4726 4.3895 13.3461C4.76081 13.2293 5.03579 12.9947 5.27666 12.7055C5.38724 12.5726 5.49821 12.44 5.60906 12.3072C5.61599 12.3124 5.62544 12.3161 5.62544 12.3197C5.61998 12.9598 5.76174 13.576 5.93946 14.1845C6.32435 15.5026 6.7147 16.8192 7.10426 18.136C7.21896 18.524 7.3382 18.9105 7.45584 19.2978C7.4613 19.3156 7.47076 19.3323 7.49128 19.379C7.5086 19.1665 7.51912 18.9856 7.53871 18.8055C7.5888 18.3445 7.63796 17.8833 7.69671 17.4233C7.74841 17.0182 7.81355 16.6149 7.86991 16.2103C7.87737 16.1568 7.88496 16.0934 7.86418 16.0472C7.72403 15.7354 7.57641 15.427 7.43159 15.1185C7.19645 15.2745 6.97676 15.4204 6.75707 15.5662C7.12677 14.9978 7.52698 14.4662 8.21083 14.2112C8.17007 14.1883 8.14316 14.1725 8.11584 14.1576C7.71483 13.9382 7.30982 13.7258 6.91414 13.4972C6.57375 13.3007 6.26227 13.0635 6.0134 12.7536C5.8931 12.6038 5.82195 12.4443 5.83101 12.2403C5.84887 11.8389 5.84434 11.4364 5.845 11.0344C5.845 10.9926 5.82568 10.9469 5.8037 10.91C5.68526 10.7104 5.56509 10.5119 5.44039 10.3163C5.42267 10.2884 5.37644 10.2624 5.34394 10.2631C5.06017 10.2688 4.80464 10.1873 4.57029 10.031C4.54818 10.0162 4.52127 10.0047 4.49515 10.0006C4.06084 9.93197 3.71898 9.73716 3.53779 9.31355C3.52567 9.2853 3.46918 9.25585 3.43734 9.25972C3.32876 9.27291 3.28359 9.22134 3.26774 9.125C3.25215 9.02933 3.23496 8.93392 3.22018 8.83811C3.1958 8.67994 3.21631 8.6509 3.38444 8.61758C3.37272 8.4826 3.3534 8.34575 3.35047 8.20877C3.34474 7.93934 3.31783 7.66564 3.35447 7.40114C3.41642 6.95301 3.69606 6.6484 4.09414 6.44786C4.21125 6.38883 4.23216 6.21787 4.12745 6.13765C3.95425 6.00507 3.77067 5.88568 3.602 5.74776C3.28466 5.48819 3.03433 5.17772 2.9384 4.7677C2.85101 4.39433 2.9364 4.03749 3.06936 3.6913C3.35833 2.93884 3.8614 2.3464 4.48516 1.85284C5.3482 1.17047 6.33554 0.758588 7.41694 0.584429C9.18832 0.299139 10.7857 0.743397 12.2034 1.81793C12.9161 2.35813 13.4581 3.04477 13.7399 3.9145C13.9615 4.59887 13.7677 5.16239 13.2521 5.6285C13.0577 5.80426 12.8349 5.9483 12.6252 6.10714C12.5198 6.18696 12.4937 6.25358 12.5338 6.37431C12.5438 6.40429 12.5811 6.43094 12.6121 6.44706C12.8299 6.56046 13.0263 6.69944 13.1658 6.90624C13.3067 7.11531 13.3873 7.3481 13.3819 7.59915C13.3754 7.90349 13.3476 8.20744 13.3297 8.51165C13.3275 8.54883 13.3294 8.58614 13.3294 8.62265C13.5192 8.65103 13.5222 8.65489 13.493 8.84811C13.4775 8.95071 13.4639 9.05371 13.4445 9.15565C13.4326 9.21761 13.4013 9.26132 13.3258 9.26158C13.1939 9.26198 13.1189 9.33207 13.1157 9.46346C13.1116 9.63669 13.1142 9.81018 13.1186 9.9834C13.1193 10.0083 13.1406 10.0399 13.1618 10.0558C13.3101 10.167 13.3022 10.2924 13.1293 10.3772ZM10.3225 9.10954C10.3238 9.09742 10.3251 9.08516 10.3263 9.07303C10.4016 9.06477 10.4775 9.05998 10.5522 9.04772C10.9719 8.97856 11.3146 8.79028 11.5412 8.41544C11.7736 8.03115 11.8283 7.61354 11.7874 7.17634C11.7589 6.87187 11.6623 6.59484 11.4454 6.37044C11.4209 6.34513 11.3814 6.31488 11.3518 6.31768C11.2784 6.32447 11.2067 6.34912 11.1429 6.36458C11.2371 6.47918 11.3522 6.57858 11.4164 6.70424C11.6734 7.20699 11.6397 7.71787 11.3885 8.20957C11.1998 8.57907 10.8766 8.77495 10.462 8.80493C10.0998 8.83118 9.80062 8.67768 9.53923 8.44489C9.19391 8.13735 8.91374 7.77984 8.72948 7.35117C8.7047 7.29347 8.66567 7.23018 8.61518 7.197C8.39176 7.05082 8.08414 7.15209 7.97636 7.39341C7.77185 7.85139 7.4681 8.23809 7.07761 8.54683C6.4681 9.0288 5.65156 8.84411 5.30743 8.1616C5.14556 7.8406 5.11985 7.49921 5.15809 7.14836C5.18873 6.86813 5.3105 6.63348 5.51007 6.4368C5.52886 6.41828 5.54431 6.39643 5.56283 6.37431C5.36339 6.29995 5.32315 6.30755 5.20498 6.46439C5.15129 6.53567 5.10346 6.61376 5.06656 6.69504C4.88391 7.09773 4.89163 7.51653 4.98529 7.93601C5.20738 8.92966 6.24908 9.35739 7.10959 8.81386C7.36618 8.65183 7.56522 8.43023 7.74601 8.19291C7.87364 8.02542 7.98195 7.84326 8.09892 7.66751C8.15448 7.58409 8.20284 7.49215 8.31435 7.47096C8.43839 7.44738 8.51299 7.49161 8.60132 7.64325C8.82794 8.03195 9.09719 8.38586 9.44211 8.67808C9.51232 8.73751 9.58586 8.79307 9.65781 8.85051L9.64222 8.87902C9.49567 8.806 9.34153 8.7451 9.20417 8.65769C8.90707 8.46861 8.7099 8.18865 8.53711 7.88777C8.509 7.83873 8.43612 7.7813 8.38949 7.78583C8.33407 7.79116 8.27545 7.85192 8.23575 7.90256C8.20924 7.93627 8.20697 7.99384 8.20497 8.04114C8.19551 8.26274 8.18845 8.4846 8.18326 8.70633C8.17819 8.92073 8.20657 8.95791 8.41281 9.0292C8.54976 9.0765 8.68978 9.11687 8.82181 9.1755C8.92852 9.22294 8.92733 9.29636 8.82634 9.35792C8.74973 9.40456 8.66567 9.43907 8.58786 9.48411C8.3787 9.60537 8.18073 9.74115 8.03191 9.92797C8.12664 9.95635 8.21523 9.9834 8.30409 10.009C8.32301 10.0145 8.34846 10.0236 8.36231 10.0159C8.52125 9.92717 8.68152 9.97887 8.8386 10.0143C8.98968 10.0486 9.13702 10.0985 9.2861 10.1416C9.28411 10.1514 9.28197 10.1613 9.27998 10.1712C9.24654 10.1712 9.2131 10.1705 9.17966 10.1712C8.86111 10.1783 8.54244 10.1809 8.22442 10.1981C8.16953 10.201 8.08307 10.259 8.07294 10.3051C8.05616 10.3821 8.13743 10.4198 8.2095 10.4289C8.33247 10.4442 8.45677 10.4495 8.57987 10.4642C8.61211 10.468 8.6634 10.4864 8.66793 10.5067C8.6742 10.5341 8.65168 10.5788 8.62743 10.6002C8.58946 10.6339 8.54243 10.6609 8.49474 10.6792C8.34006 10.7391 8.18086 10.7878 8.02792 10.8515C7.76799 10.9599 7.70191 11.2285 7.88043 11.4476C8.03617 11.6388 8.25613 11.7149 8.48821 11.7523C9.03551 11.8405 9.54536 11.7077 10.0351 11.4719C10.0728 11.4538 10.1068 11.4284 10.1377 11.4093C10.0107 11.3476 9.88589 11.3022 9.77798 11.2312C9.61584 11.1244 9.55842 10.9258 9.61011 10.7221C9.66047 10.524 9.77211 10.3672 9.98554 10.3621C10.3401 10.3536 10.6675 10.4622 10.9556 10.6579C11.0251 10.1264 11.0961 9.58312 11.1677 9.03599C11.0142 9.06424 10.8768 9.10008 10.7373 9.11221C10.6 9.12407 10.4606 9.11181 10.3221 9.11021L10.3225 9.10954ZM5.71018 4.54331C7.37004 4.16514 9.02938 4.11851 10.7014 4.4563C10.7014 4.33037 10.6936 4.21924 10.7036 4.10971C10.7132 4.00418 10.6683 3.971 10.5724 3.94528C10.0207 3.7979 9.45717 3.73274 8.88962 3.70836C8.22109 3.67971 7.55163 3.68997 6.89096 3.81016C6.52073 3.87745 6.15609 3.97499 5.78865 4.05748C5.72763 4.0712 5.70605 4.10225 5.70871 4.16581C5.71391 4.28667 5.71018 4.40806 5.71018 4.54318V4.54331ZM5.64649 17.4092C5.64463 16.6308 4.99595 15.9766 4.21018 15.9921C3.34874 16.009 2.74509 16.6598 2.76188 17.4331C2.77986 18.2577 3.38205 18.8496 4.20632 18.8552C5.14929 18.8616 5.65102 18.0905 5.64636 17.4092H5.64649ZM8.36325 6.232C8.48448 6.232 8.60558 6.23359 8.72682 6.23173C9.43332 6.2208 10.1381 6.17989 10.8367 6.07209C11.1781 6.01933 11.5164 5.94551 11.8539 5.87089C11.9205 5.8561 11.9798 5.79786 12.0356 5.75149C12.0488 5.74057 12.0447 5.68887 12.0303 5.66981C12.0159 5.65076 11.9773 5.63903 11.9516 5.64209C11.9077 5.64742 11.8662 5.66888 11.8227 5.68047C10.9881 5.9034 10.1332 5.97989 9.27465 6.0036C8.07947 6.03665 6.8843 6.02226 5.69859 5.84224C5.40202 5.7972 5.11013 5.72031 4.81769 5.65129C4.7632 5.63836 4.70112 5.59532 4.68287 5.67021C4.67141 5.71685 4.70299 5.78974 4.73936 5.82785C4.77346 5.86356 4.83781 5.87595 4.89137 5.88661C5.21338 5.95057 5.53445 6.02239 5.85899 6.07036C6.68886 6.19295 7.52525 6.23306 8.36338 6.232H8.36325ZM8.44744 4.91055C8.53897 5.13041 8.6289 5.34681 8.71896 5.56308C8.81835 5.80173 8.89389 5.85676 9.15301 5.84011C9.57787 5.81292 10.0027 5.78254 10.4263 5.74003C10.6533 5.71725 10.8776 5.66648 11.1006 5.62864C10.9207 5.48526 10.7548 5.35121 10.5867 5.21996C10.4582 5.11962 10.3159 5.05006 10.135 5.03194C10.2468 5.21156 10.3499 5.37733 10.4674 5.56614C10.3393 5.54176 10.2381 5.5211 10.1366 5.50351C9.94731 5.47087 9.79476 5.38052 9.67646 5.22755C9.60665 5.13721 9.52898 5.05273 9.45104 4.96931C9.42692 4.94346 9.39002 4.91361 9.35858 4.91321C9.06095 4.90895 8.76332 4.91068 8.44771 4.91068L8.44744 4.91055ZM12.7107 9.83403C12.6094 9.88187 12.5236 9.9377 12.4296 9.96342C12.2499 10.0126 12.088 10.1043 11.9148 10.1638C11.7411 10.2235 11.5511 10.236 11.3684 10.2704C11.3398 10.2758 11.2984 10.2784 11.2866 10.2972C11.1967 10.4409 11.108 10.5856 11.0287 10.7352C10.9869 10.8142 11.0231 10.8723 11.1137 10.8915C11.2287 10.9158 11.3441 10.9413 11.4606 10.9555C11.6654 10.9801 11.8712 10.9965 12.0831 11.017C12.0917 10.8878 12.1387 10.8033 12.2555 10.8012C12.3758 10.799 12.4248 10.8863 12.4382 10.9932C12.8522 10.9741 12.8551 10.8362 12.8114 10.5257C12.8006 10.4491 12.7812 10.384 12.7052 10.3372C12.6229 10.2864 12.6229 10.1853 12.6715 10.125C12.7489 10.0292 12.7016 9.93783 12.7104 9.83403H12.7107ZM12.1293 5.38452C12.1633 5.28019 12.1216 5.2077 12.0111 5.16026C11.8682 5.09883 11.728 5.03034 11.5887 4.96105C11.5328 4.93333 11.4922 4.93746 11.4388 4.97464C11.2902 5.07778 11.0608 4.99636 10.9965 4.82993C10.9835 4.79649 10.946 4.75571 10.9136 4.74931C10.5372 4.67496 10.1621 4.58915 9.78211 4.54051C9.11104 4.4547 8.43599 4.43271 7.7596 4.47402C7.11891 4.51319 6.48582 4.60167 5.86099 4.74945C5.79411 4.76531 5.72616 4.77583 5.72057 4.87231C5.7187 4.90389 5.6766 4.94266 5.64343 4.96105C5.53205 5.02261 5.41721 5.03847 5.29771 4.97211C5.26667 4.95492 5.21511 4.94812 5.18433 4.96185C5.02326 5.03367 4.86699 5.11615 4.70658 5.18971C4.61039 5.23381 4.58601 5.29964 4.62238 5.40424C4.65982 5.38452 4.69233 5.3664 4.72563 5.35014C4.75987 5.33349 4.79491 5.31843 4.82982 5.30337C5.86845 4.85392 6.96317 4.66883 8.08547 4.65271C8.65901 4.64445 9.23468 4.68176 9.80702 4.72746C10.2552 4.76331 10.6979 4.84992 11.1222 5.01182C11.4541 5.13841 11.7885 5.2586 12.1292 5.38439L12.1293 5.38452ZM12.9352 17.6457C12.9727 17.358 13.0226 17.0919 13.0371 16.8238C13.0471 16.6405 13.0159 16.453 12.985 16.2704C12.9767 16.2217 12.9081 16.1589 12.857 16.147C12.778 16.1288 12.7395 16.2027 12.7183 16.2726C12.7032 16.3221 12.6823 16.3728 12.6818 16.4231C12.6795 16.6269 12.6735 16.8314 12.6891 17.0341C12.7044 17.2345 12.744 17.4331 12.7733 17.6344C12.632 17.6271 12.4935 17.6271 12.357 17.6109C12.1854 17.5907 12.1453 17.6124 12.0901 17.8006C12.1964 17.8377 12.3037 17.8748 12.4105 17.9125C12.4846 17.9386 12.5575 17.969 12.6326 17.9915C12.7244 18.019 12.8241 18.0724 12.9096 18.0565C13.0545 18.0298 13.191 17.957 13.3313 17.9046C13.4266 17.869 13.5228 17.8353 13.6253 17.7983C13.605 17.7559 13.592 17.7283 13.5789 17.7008C13.5355 17.6093 13.4797 17.5759 13.3674 17.6028C13.2283 17.6361 13.0804 17.6329 12.9352 17.6456V17.6457ZM5.16915 9.93264C5.13397 9.79845 5.10386 9.67826 5.07082 9.55887C4.87951 8.86969 4.74802 8.16893 4.73696 7.45351C4.73083 7.05708 4.77786 6.6596 4.8069 6.26291C4.81276 6.18296 4.77479 6.15738 4.71338 6.13992C4.64557 6.1206 4.61492 6.16057 4.60453 6.21747C4.58841 6.30582 4.57442 6.39496 4.56656 6.48437C4.49688 7.28588 4.53539 8.08245 4.69846 8.87023C4.76773 9.20455 4.86392 9.53328 4.94612 9.86494C4.96384 9.93637 4.99289 9.97714 5.07429 9.94583C5.0988 9.93637 5.12745 9.93797 5.16901 9.93264H5.16915ZM14.8297 16.5499C14.8187 16.544 14.8133 16.5384 14.8077 16.5384C14.3434 16.5383 13.8791 16.5375 13.4149 16.5396C13.3087 16.5401 13.2014 16.623 13.1799 16.727C13.1461 16.8915 13.1228 17.0584 13.0973 17.2099C13.3722 17.1861 13.6429 17.1684 13.912 17.1372C14.0501 17.1212 14.1526 17.0322 14.2558 16.9127H13.6493C13.6491 16.9038 13.649 16.8949 13.6487 16.8859C13.6954 16.8821 13.742 16.8766 13.7888 16.8747C14.0032 16.8661 14.2183 16.8654 14.432 16.8485C14.6222 16.8334 14.7588 16.733 14.8295 16.55L14.8297 16.5499ZM11.5504 9.92797C11.6777 9.95782 11.7593 9.91438 11.7953 9.79765C12.0207 9.0701 12.1415 8.32403 12.1742 7.5645C12.1931 7.12504 12.1887 6.68505 12.1176 6.24879C12.099 6.13499 12.0287 6.09914 11.9478 6.1695C11.9189 6.19469 11.9133 6.26091 11.9169 6.30688C11.9382 6.58258 11.9817 6.85761 11.9874 7.13344C12.0031 7.88484 11.8913 8.62251 11.7095 9.35006C11.661 9.54381 11.6036 9.73529 11.5503 9.92797H11.5504ZM12.609 17.2017C12.6001 17.151 12.5875 17.0837 12.5765 17.0161C12.5648 16.9444 12.5563 16.8722 12.5436 16.8006C12.5086 16.6041 12.4289 16.5379 12.2265 16.5372C11.8074 16.536 11.3884 16.5353 10.9693 16.5351C10.9441 16.5351 10.9191 16.5409 10.8866 16.5449C10.9664 16.7299 11.0986 16.8332 11.2853 16.847C11.5128 16.8639 11.7415 16.8638 11.9697 16.8721C12.015 16.8737 12.06 16.8806 12.1052 16.8851C12.1045 16.8961 12.1037 16.907 12.103 16.9178H11.4814C11.5976 17.033 11.697 17.1255 11.8394 17.139C12.0925 17.163 12.3462 17.1805 12.6092 17.2015L12.609 17.2017ZM10.2713 2.07164C10.222 2.07164 10.1912 2.07164 10.1605 2.07164C9.77584 2.07097 9.39122 2.07044 9.00673 2.06978C8.77278 2.06938 8.70604 2.12574 8.67087 2.35666C8.65155 2.48392 8.63463 2.61157 8.61944 2.71951C8.84672 2.69859 9.06215 2.677 9.27784 2.65941C9.43705 2.64648 9.56428 2.5752 9.69471 2.43955H9.09652C9.09652 2.42875 9.09652 2.41809 9.09652 2.4073C9.16447 2.40344 9.23241 2.39864 9.30049 2.39597C9.50446 2.38771 9.7091 2.38745 9.91227 2.36999C10.0853 2.35507 10.2 2.2518 10.2713 2.07164ZM7.08187 2.43888C7.19139 2.56147 7.30849 2.64395 7.46796 2.65648C7.67407 2.6726 7.87897 2.70285 8.0844 2.72617C8.09599 2.7275 8.10852 2.72057 8.12051 2.71737C8.09919 2.58532 8.07854 2.45913 8.05856 2.33268C8.02778 2.13667 7.94358 2.06351 7.74548 2.06471C7.35752 2.06698 6.96957 2.07004 6.58161 2.07351C6.55643 2.07377 6.53125 2.0795 6.49661 2.0839C6.57149 2.25886 6.69405 2.35773 6.86991 2.37052C7.09413 2.38691 7.31942 2.38718 7.54417 2.39571C7.58587 2.39731 7.6273 2.4049 7.66887 2.40983C7.66807 2.41943 7.6674 2.42915 7.6666 2.43875H7.08147L7.08187 2.43888ZM8.43332 3.21773C8.53737 3.24132 8.64355 3.26637 8.75 3.28915C8.83993 3.30847 8.93852 3.26543 8.92013 3.2128C8.90295 3.1639 8.84006 3.11593 8.78691 3.09781C8.68392 3.06263 8.57374 3.04864 8.46396 3.02532C8.46703 2.99787 8.46849 2.98467 8.46996 2.97148C8.49874 2.70392 8.5403 2.43675 8.55109 2.16838C8.55696 2.023 8.51819 1.87363 8.48248 1.73025C8.47156 1.68641 8.40375 1.62752 8.36298 1.62832C8.32141 1.62912 8.27225 1.68908 8.24294 1.73398C8.2179 1.77236 8.2063 1.82593 8.2063 1.87283C8.2063 2.13467 8.20564 2.39664 8.21723 2.65808C8.22283 2.7832 8.2552 2.90712 8.27585 3.03411C8.14875 3.0577 8.03431 3.07049 7.926 3.10313C7.88017 3.11699 7.81222 3.17602 7.81529 3.2088C7.82181 3.27756 7.88123 3.31514 7.96237 3.29475C8.07255 3.26717 8.18406 3.24478 8.29743 3.21973C8.31768 3.27556 8.33673 3.32833 8.35592 3.3811L8.38003 3.38163C8.39629 3.33166 8.41254 3.28169 8.43332 3.2176V3.21773ZM12.6991 6.81457C12.6892 6.83429 12.6838 6.84015 12.6835 6.84628C12.6687 7.27082 12.6542 7.69522 12.6411 8.11976C12.6406 8.13761 12.6503 8.1632 12.6639 8.17279C12.801 8.26887 12.9398 8.36241 13.0886 8.46381C13.1165 8.20584 13.1459 7.96599 13.1675 7.72547C13.1895 7.48015 13.1351 7.25056 12.997 7.04523C12.925 6.93836 12.8349 6.85041 12.6991 6.8147V6.81457ZM11.2686 6.65094C11.1601 6.56872 11.068 6.49077 10.9673 6.42681C10.9298 6.40296 10.868 6.39736 10.8235 6.40829C10.6558 6.44973 10.4901 6.4997 10.3247 6.55033C10.2832 6.56312 10.2404 6.58404 10.208 6.61243C10.1185 6.69104 10.0343 6.77553 9.94797 6.85761C9.95224 6.86147 9.95637 6.86534 9.96063 6.8692C10.1982 6.80084 10.4357 6.73249 10.6675 6.66586C10.3209 7.04283 9.97848 7.41513 9.63609 7.78743C9.64248 7.79396 9.64901 7.80062 9.65541 7.80715C10.2019 7.44604 10.7475 7.0836 11.2688 6.6508L11.2686 6.65094ZM11.1804 4.11637C11.1804 4.33171 11.1779 4.52865 11.1828 4.72546C11.1836 4.75904 11.2166 4.81901 11.2349 4.81914C11.2729 4.81927 11.3234 4.79662 11.3459 4.76637C11.3724 4.73066 11.3804 4.67763 11.3859 4.63086C11.3923 4.57476 11.3874 4.51719 11.3874 4.46029C11.4001 4.45643 11.4128 4.45257 11.4256 4.4487C11.4484 4.49694 11.4698 4.54597 11.4945 4.59314C11.5123 4.62726 11.5268 4.67576 11.556 4.68922C11.7594 4.78316 11.9662 4.86977 12.1768 4.96078C12.1958 4.89962 12.2215 4.8322 12.2352 4.76237C12.2396 4.74025 12.2183 4.70294 12.1976 4.68749C11.8923 4.45869 11.5692 4.26055 11.1806 4.11624L11.1804 4.11637ZM5.35793 4.42738C5.35793 4.51293 5.3486 4.56916 5.36032 4.62033C5.37445 4.68176 5.3955 4.74798 5.43387 4.79582C5.48036 4.85365 5.55976 4.8282 5.56136 4.75798C5.56643 4.5493 5.5631 4.3405 5.5631 4.1229C5.25095 4.22031 4.73643 4.53105 4.48889 4.76411C4.51021 4.82034 4.53219 4.87843 4.55204 4.93094C4.81823 4.76451 5.07722 4.60261 5.35779 4.42725L5.35793 4.42738ZM4.39004 5.29418C4.37658 5.1957 4.37751 5.12375 4.35447 5.06072C4.33648 5.01155 4.28599 4.93627 4.25481 4.93853C4.20658 4.94213 4.1397 4.99263 4.12052 5.03953C4.04338 5.22888 4.02779 5.42823 4.08735 5.62597C4.10094 5.67088 4.15569 5.73843 4.1854 5.73537C4.23083 5.73071 4.29411 5.6818 4.30904 5.6377C4.3494 5.51844 4.36832 5.39185 4.3899 5.29404L4.39004 5.29418ZM12.6699 5.41437C12.6751 5.41184 12.6803 5.40931 12.6855 5.40677C12.6479 5.26846 12.623 5.12482 12.5685 4.99343C12.527 4.89323 12.4199 4.90055 12.3852 5.00436C12.3079 5.23621 12.3154 5.46847 12.4457 5.6826C12.5026 5.77601 12.5942 5.76349 12.629 5.65808C12.6545 5.5808 12.6573 5.49592 12.6701 5.41437H12.6699ZM11.0423 4.52932C11.0423 4.46829 11.0423 4.41006 11.0423 4.35183C11.0423 4.16465 10.9502 4.05001 10.766 4.00791C10.7611 4.00684 10.7549 4.01124 10.7409 4.0159C10.7584 4.11224 10.7832 4.20938 10.7922 4.30785C10.8057 4.4519 10.8758 4.52772 11.0423 4.52945V4.52932ZM4.1417 6.74768C4.13171 6.74008 4.12172 6.73235 4.11159 6.72462C4.06536 6.76726 3.99249 6.80191 3.97717 6.85374C3.90323 7.10359 3.97624 7.33744 4.07802 7.58662C4.1004 7.29134 4.12105 7.01951 4.14157 6.74768H4.1417ZM12.4352 7.71468C12.614 7.53959 12.6252 7.11745 12.4352 6.92543V7.71468Z" fill="url(#paint0_linear_611_1019)"/>
<path d="M4.38885 16.2345C4.6172 16.2617 4.81278 16.3458 4.97798 16.4951C4.97705 16.5062 4.97891 16.5151 4.97545 16.5186C4.86549 16.6267 4.85861 16.7401 4.9548 16.8587C4.97838 16.8877 5.00023 16.9181 5.02847 16.9555C5.10028 16.892 5.16889 16.8313 5.24284 16.766C5.36154 16.916 5.40737 17.0882 5.42749 17.276C5.34302 17.2927 5.26588 17.308 5.18062 17.3248V17.5846C5.25922 17.5973 5.33649 17.6098 5.44201 17.6267C5.37793 17.7946 5.31877 17.9493 5.25389 18.1192C5.16743 18.0453 5.10255 17.9897 5.02794 17.9257C4.9588 18.0017 4.89005 18.0772 4.81425 18.1605C4.8682 18.2338 4.92056 18.3048 4.98931 18.3984C4.79466 18.481 4.60934 18.5595 4.41177 18.6434C4.38686 18.5387 4.36874 18.4629 4.35035 18.3858H4.07044C4.05712 18.4633 4.0446 18.5364 4.03061 18.6181C3.80745 18.5809 3.60881 18.5059 3.43895 18.3496C3.49051 18.2767 3.53967 18.2069 3.5899 18.1359C3.51835 18.0575 3.45121 17.9837 3.37567 17.9009C3.31372 17.9621 3.25163 18.0233 3.16917 18.1048C3.10042 17.936 3.03554 17.7766 2.9668 17.6077C3.06872 17.585 3.14838 17.5673 3.23218 17.5486V17.2752C3.15944 17.2635 3.08563 17.2516 3.00104 17.238C3.00983 17.0585 3.07125 16.9009 3.19035 16.7521C3.25736 16.8128 3.32025 16.8697 3.38846 16.9314C3.46067 16.844 3.52621 16.7646 3.59749 16.6784C3.5478 16.6171 3.50063 16.5588 3.44734 16.493C3.60495 16.3274 3.80666 16.2658 4.03167 16.2384C4.04433 16.3251 4.05566 16.4029 4.06685 16.4793C4.3321 16.5254 4.3377 16.5213 4.38885 16.2344V16.2345ZM4.02541 18.2625C4.06938 18.1223 4.10828 17.9865 4.15611 17.854C4.16677 17.8245 4.2062 17.7905 4.23671 17.7855C4.38166 17.7622 4.48851 17.6932 4.54393 17.5552C4.60175 17.4112 4.56631 17.2797 4.46706 17.1709C4.42509 17.1248 4.41976 17.0882 4.43242 17.0344C4.46799 16.8833 4.4973 16.7306 4.53474 16.5799C4.54979 16.5193 4.54087 16.4785 4.48078 16.4552C4.41403 16.4293 4.39272 16.4789 4.377 16.5242C4.32757 16.6677 4.27974 16.812 4.23631 16.9574C4.21859 17.0168 4.19474 17.0513 4.12826 17.0709C3.90658 17.1359 3.79133 17.3627 3.89965 17.5617C3.96746 17.6863 3.96107 17.7911 3.92389 17.9111C3.90751 17.9638 3.89565 18.0179 3.88193 18.0715C3.84276 18.2254 3.84809 18.2329 4.02555 18.2623L4.02541 18.2625Z" fill="url(#paint1_linear_611_1019)"/>
<path d="M33.4321 16.5L28.6001 5.3H31.4001L35.6241 15.22H33.9761L38.2641 5.3H40.8401L35.9921 16.5H33.4321ZM44.1593 9.812H49.5513V11.828H44.1593V9.812ZM44.3513 14.42H50.4473V16.5H41.7753V5.3H50.2393V7.38H44.3513V14.42ZM52.5096 16.5V5.3H55.1016V14.388H60.7176V16.5H52.5096ZM67.4184 16.692C66.5331 16.692 65.7117 16.548 64.9544 16.26C64.2077 15.972 63.5571 15.5667 63.0024 15.044C62.4584 14.5213 62.0317 13.908 61.7224 13.204C61.4237 12.5 61.2744 11.732 61.2744 10.9C61.2744 10.068 61.4237 9.3 61.7224 8.596C62.0317 7.892 62.4637 7.27867 63.0184 6.756C63.5731 6.23333 64.2237 5.828 64.9704 5.54C65.7171 5.252 66.5277 5.108 67.4024 5.108C68.2877 5.108 69.0984 5.252 69.8344 5.54C70.5811 5.828 71.2264 6.23333 71.7704 6.756C72.3251 7.27867 72.7571 7.892 73.0664 8.596C73.3757 9.28933 73.5304 10.0573 73.5304 10.9C73.5304 11.732 73.3757 12.5053 73.0664 13.22C72.7571 13.924 72.3251 14.5373 71.7704 15.06C71.2264 15.572 70.5811 15.972 69.8344 16.26C69.0984 16.548 68.2931 16.692 67.4184 16.692ZM67.4024 14.484C67.9037 14.484 68.3624 14.3987 68.7784 14.228C69.2051 14.0573 69.5784 13.812 69.8984 13.492C70.2184 13.172 70.4637 12.7933 70.6344 12.356C70.8157 11.9187 70.9064 11.4333 70.9064 10.9C70.9064 10.3667 70.8157 9.88133 70.6344 9.444C70.4637 9.00667 70.2184 8.628 69.8984 8.308C69.5891 7.988 69.2211 7.74267 68.7944 7.572C68.3677 7.40133 67.9037 7.316 67.4024 7.316C66.9011 7.316 66.4371 7.40133 66.0104 7.572C65.5944 7.74267 65.2264 7.988 64.9064 8.308C64.5864 8.628 64.3357 9.00667 64.1544 9.444C63.9837 9.88133 63.8984 10.3667 63.8984 10.9C63.8984 11.4227 63.9837 11.908 64.1544 12.356C64.3357 12.7933 64.5811 13.172 64.8904 13.492C65.2104 13.812 65.5837 14.0573 66.0104 14.228C66.4371 14.3987 66.9011 14.484 67.4024 14.484ZM75.4784 16.5V5.3H80.3264C81.3291 5.3 82.1931 5.46533 82.9184 5.796C83.6437 6.116 84.2037 6.58 84.5984 7.188C84.9931 7.796 85.1904 8.52133 85.1904 9.364C85.1904 10.196 84.9931 10.916 84.5984 11.524C84.2037 12.1213 83.6437 12.58 82.9184 12.9C82.1931 13.22 81.3291 13.38 80.3264 13.38H76.9184L78.0704 12.244V16.5H75.4784ZM82.5984 16.5L79.7984 12.436H82.5664L85.3984 16.5H82.5984ZM78.0704 12.532L76.9184 11.316H80.1824C80.9824 11.316 81.5797 11.1453 81.9744 10.804C82.3691 10.452 82.5664 9.972 82.5664 9.364C82.5664 8.74533 82.3691 8.26533 81.9744 7.924C81.5797 7.58267 80.9824 7.412 80.1824 7.412H76.9184L78.0704 6.18V12.532ZM92.22 16.692C90.6307 16.692 89.388 16.2493 88.492 15.364C87.596 14.4787 87.148 13.2147 87.148 11.572V5.3H89.74V11.476C89.74 12.5427 89.9587 13.3107 90.396 13.78C90.8333 14.2493 91.4467 14.484 92.236 14.484C93.0253 14.484 93.6387 14.2493 94.076 13.78C94.5133 13.3107 94.732 12.5427 94.732 11.476V5.3H97.292V11.572C97.292 13.2147 96.844 14.4787 95.948 15.364C95.052 16.2493 93.8093 16.692 92.22 16.692ZM99.8534 16.5V5.3H101.997L106.765 13.204H105.629L110.317 5.3H112.445L112.477 16.5H110.045L110.029 9.028H110.477L106.733 15.316H105.565L101.741 9.028H102.285V16.5H99.8534Z" fill="#81FDC5"/>
<defs>
<linearGradient id="paint0_linear_611_1019" x1="8.37225" y1="19.5" x2="8.37225" y2="0.5" gradientUnits="userSpaceOnUse">
<stop stop-color="#FF0010"/>
<stop offset="1" stop-color="#00FF8D"/>
</linearGradient>
<linearGradient id="paint1_linear_611_1019" x1="2.9668" y1="17.4389" x2="5.44201" y2="17.4389" gradientUnits="userSpaceOnUse">
<stop stop-color="#00FF8D"/>
<stop offset="1" stop-color="#FF0010"/>
</linearGradient>
</defs>
</svg>
