<svg xmlns="http://www.w3.org/2000/svg" viewBox="0 0 100 100" preserveAspectRatio="xMidYMid" width="86" height="86" style="shape-rendering: auto; display: block; background: transparent;" xmlns:xlink="http://www.w3.org/1999/xlink"><g><g transform="rotate(0 50 50)">
  <rect fill="white" height="17" width="29" ry="8.5" rx="14.5" y="4.5" x="35.5">
    <animate repeatCount="indefinite" begin="-0.8766233766233765s" dur="0.9090909090909091s" keyTimes="0;1" values="1;0" attributeName="opacity"></animate>
  </rect>
</g><g transform="rotate(12.857142857142858 50 50)">
  <rect fill="white" height="17" width="29" ry="8.5" rx="14.5" y="4.5" x="35.5">
    <animate repeatCount="indefinite" begin="-0.844155844155844s" dur="0.9090909090909091s" keyTimes="0;1" values="1;0" attributeName="opacity"></animate>
  </rect>
</g><g transform="rotate(25.714285714285715 50 50)">
  <rect fill="white" height="17" width="29" ry="8.5" rx="14.5" y="4.5" x="35.5">
    <animate repeatCount="indefinite" begin="-0.8116883116883116s" dur="0.9090909090909091s" keyTimes="0;1" values="1;0" attributeName="opacity"></animate>
  </rect>
</g><g transform="rotate(38.57142857142857 50 50)">
  <rect fill="white" height="17" width="29" ry="8.5" rx="14.5" y="4.5" x="35.5">
    <animate repeatCount="indefinite" begin="-0.7792207792207791s" dur="0.9090909090909091s" keyTimes="0;1" values="1;0" attributeName="opacity"></animate>
  </rect>
</g><g transform="rotate(51.42857142857143 50 50)">
  <rect fill="white" height="17" width="29" ry="8.5" rx="14.5" y="4.5" x="35.5">
    <animate repeatCount="indefinite" begin="-0.7467532467532466s" dur="0.9090909090909091s" keyTimes="0;1" values="1;0" attributeName="opacity"></animate>
  </rect>
</g><g transform="rotate(64.28571428571429 50 50)">
  <rect fill="white" height="17" width="29" ry="8.5" rx="14.5" y="4.5" x="35.5">
    <animate repeatCount="indefinite" begin="-0.7142857142857142s" dur="0.9090909090909091s" keyTimes="0;1" values="1;0" attributeName="opacity"></animate>
  </rect>
</g><g transform="rotate(77.14285714285714 50 50)">
  <rect fill="white" height="17" width="29" ry="8.5" rx="14.5" y="4.5" x="35.5">
    <animate repeatCount="indefinite" begin="-0.6818181818181818s" dur="0.9090909090909091s" keyTimes="0;1" values="1;0" attributeName="opacity"></animate>
  </rect>
</g><g transform="rotate(90 50 50)">
  <rect fill="white" height="17" width="29" ry="8.5" rx="14.5" y="4.5" x="35.5">
    <animate repeatCount="indefinite" begin="-0.6493506493506492s" dur="0.9090909090909091s" keyTimes="0;1" values="1;0" attributeName="opacity"></animate>
  </rect>
</g><g transform="rotate(102.85714285714286 50 50)">
  <rect fill="white" height="17" width="29" ry="8.5" rx="14.5" y="4.5" x="35.5">
    <animate repeatCount="indefinite" begin="-0.6168831168831168s" dur="0.9090909090909091s" keyTimes="0;1" values="1;0" attributeName="opacity"></animate>
  </rect>
</g><g transform="rotate(115.71428571428571 50 50)">
  <rect fill="white" height="17" width="29" ry="8.5" rx="14.5" y="4.5" x="35.5">
    <animate repeatCount="indefinite" begin="-0.5844155844155844s" dur="0.9090909090909091s" keyTimes="0;1" values="1;0" attributeName="opacity"></animate>
  </rect>
</g><g transform="rotate(128.57142857142858 50 50)">
  <rect fill="white" height="17" width="29" ry="8.5" rx="14.5" y="4.5" x="35.5">
    <animate repeatCount="indefinite" begin="-0.5519480519480519s" dur="0.9090909090909091s" keyTimes="0;1" values="1;0" attributeName="opacity"></animate>
  </rect>
</g><g transform="rotate(141.42857142857142 50 50)">
  <rect fill="white" height="17" width="29" ry="8.5" rx="14.5" y="4.5" x="35.5">
    <animate repeatCount="indefinite" begin="-0.5194805194805194s" dur="0.9090909090909091s" keyTimes="0;1" values="1;0" attributeName="opacity"></animate>
  </rect>
</g><g transform="rotate(154.28571428571428 50 50)">
  <rect fill="white" height="17" width="29" ry="8.5" rx="14.5" y="4.5" x="35.5">
    <animate repeatCount="indefinite" begin="-0.48701298701298695s" dur="0.9090909090909091s" keyTimes="0;1" values="1;0" attributeName="opacity"></animate>
  </rect>
</g><g transform="rotate(167.14285714285714 50 50)">
  <rect fill="white" height="17" width="29" ry="8.5" rx="14.5" y="4.5" x="35.5">
    <animate repeatCount="indefinite" begin="-0.4545454545454545s" dur="0.9090909090909091s" keyTimes="0;1" values="1;0" attributeName="opacity"></animate>
  </rect>
</g><g transform="rotate(180 50 50)">
  <rect fill="white" height="17" width="29" ry="8.5" rx="14.5" y="4.5" x="35.5">
    <animate repeatCount="indefinite" begin="-0.422077922077922s" dur="0.9090909090909091s" keyTimes="0;1" values="1;0" attributeName="opacity"></animate>
  </rect>
</g><g transform="rotate(192.85714285714286 50 50)">
  <rect fill="white" height="17" width="29" ry="8.5" rx="14.5" y="4.5" x="35.5">
    <animate repeatCount="indefinite" begin="-0.3896103896103896s" dur="0.9090909090909091s" keyTimes="0;1" values="1;0" attributeName="opacity"></animate>
  </rect>
</g><g transform="rotate(205.71428571428572 50 50)">
  <rect fill="white" height="17" width="29" ry="8.5" rx="14.5" y="4.5" x="35.5">
    <animate repeatCount="indefinite" begin="-0.3571428571428571s" dur="0.9090909090909091s" keyTimes="0;1" values="1;0" attributeName="opacity"></animate>
  </rect>
</g><g transform="rotate(218.57142857142858 50 50)">
  <rect fill="white" height="17" width="29" ry="8.5" rx="14.5" y="4.5" x="35.5">
    <animate repeatCount="indefinite" begin="-0.3246753246753246s" dur="0.9090909090909091s" keyTimes="0;1" values="1;0" attributeName="opacity"></animate>
  </rect>
</g><g transform="rotate(231.42857142857142 50 50)">
  <rect fill="white" height="17" width="29" ry="8.5" rx="14.5" y="4.5" x="35.5">
    <animate repeatCount="indefinite" begin="-0.2922077922077922s" dur="0.9090909090909091s" keyTimes="0;1" values="1;0" attributeName="opacity"></animate>
  </rect>
</g><g transform="rotate(244.28571428571428 50 50)">
  <rect fill="white" height="17" width="29" ry="8.5" rx="14.5" y="4.5" x="35.5">
    <animate repeatCount="indefinite" begin="-0.2597402597402597s" dur="0.9090909090909091s" keyTimes="0;1" values="1;0" attributeName="opacity"></animate>
  </rect>
</g><g transform="rotate(257.14285714285717 50 50)">
  <rect fill="white" height="17" width="29" ry="8.5" rx="14.5" y="4.5" x="35.5">
    <animate repeatCount="indefinite" begin="-0.22727272727272724s" dur="0.9090909090909091s" keyTimes="0;1" values="1;0" attributeName="opacity"></animate>
  </rect>
</g><g transform="rotate(270 50 50)">
  <rect fill="white" height="17" width="29" ry="8.5" rx="14.5" y="4.5" x="35.5">
    <animate repeatCount="indefinite" begin="-0.1948051948051948s" dur="0.9090909090909091s" keyTimes="0;1" values="1;0" attributeName="opacity"></animate>
  </rect>
</g><g transform="rotate(282.85714285714283 50 50)">
  <rect fill="white" height="17" width="29" ry="8.5" rx="14.5" y="4.5" x="35.5">
    <animate repeatCount="indefinite" begin="-0.1623376623376623s" dur="0.9090909090909091s" keyTimes="0;1" values="1;0" attributeName="opacity"></animate>
  </rect>
</g><g transform="rotate(295.7142857142857 50 50)">
  <rect fill="white" height="17" width="29" ry="8.5" rx="14.5" y="4.5" x="35.5">
    <animate repeatCount="indefinite" begin="-0.12987012987012986s" dur="0.9090909090909091s" keyTimes="0;1" values="1;0" attributeName="opacity"></animate>
  </rect>
</g><g transform="rotate(308.57142857142856 50 50)">
  <rect fill="white" height="17" width="29" ry="8.5" rx="14.5" y="4.5" x="35.5">
    <animate repeatCount="indefinite" begin="-0.0974025974025974s" dur="0.9090909090909091s" keyTimes="0;1" values="1;0" attributeName="opacity"></animate>
  </rect>
</g><g transform="rotate(321.42857142857144 50 50)">
  <rect fill="white" height="17" width="29" ry="8.5" rx="14.5" y="4.5" x="35.5">
    <animate repeatCount="indefinite" begin="-0.06493506493506493s" dur="0.9090909090909091s" keyTimes="0;1" values="1;0" attributeName="opacity"></animate>
  </rect>
</g><g transform="rotate(334.2857142857143 50 50)">
  <rect fill="white" height="17" width="29" ry="8.5" rx="14.5" y="4.5" x="35.5">
    <animate repeatCount="indefinite" begin="-0.032467532467532464s" dur="0.9090909090909091s" keyTimes="0;1" values="1;0" attributeName="opacity"></animate>
  </rect>
</g><g transform="rotate(347.14285714285717 50 50)">
  <rect fill="white" height="17" width="29" ry="8.5" rx="14.5" y="4.5" x="35.5">
    <animate repeatCount="indefinite" begin="0s" dur="0.9090909090909091s" keyTimes="0;1" values="1;0" attributeName="opacity"></animate>
  </rect>
</g><g></g></g><!-- [ldio] generated by https://loading.io --></svg>